<svg width="98" height="99" viewBox="0 0 98 99" fill="none" xmlns="http://www.w3.org/2000/svg">
<path d="M49.165 97.1864C75.4897 97.1864 96.83 75.8461 96.83 49.5214C96.83 23.1968 75.4897 1.85645 49.165 1.85645C22.8403 1.85645 1.5 23.1968 1.5 49.5214C1.5 75.8461 22.8403 97.1864 49.165 97.1864Z" stroke="#A88157" stroke-width="1.71544" stroke-linecap="round" stroke-linejoin="round"/>
<path d="M72.9733 72.1515C72.7602 72.0657 71.2395 71.368 71.4584 69.5667C71.7003 67.5366 73.2614 65.8038 74.0044 65.1862C73.9296 66.9647 75.3639 67.9598 75.122 70.0013C75.1047 70.1557 75.0701 70.2929 75.0355 70.4245C75.266 70.2129 75.4964 70.0013 75.7153 69.7783C76.3374 69.1549 76.9365 68.5087 77.501 67.8339C77.2878 67.7882 75.6461 67.3993 75.5137 65.5808C75.3639 63.545 76.562 61.5492 77.1726 60.8001C77.4376 62.5614 79.039 63.2705 79.1888 65.3178C79.1945 65.415 79.1945 65.5122 79.1888 65.6037C79.8627 64.6201 80.4676 63.5907 80.9917 62.5214C80.7844 62.55 79.0966 62.7158 78.3708 61.0402C77.5586 59.1645 78.0309 56.8885 78.3593 55.985C79.1888 57.5633 80.9399 57.712 81.7521 59.5992C81.8558 59.8393 81.9134 60.0681 81.948 60.2797C82.3915 59.1074 82.7602 57.9179 83.054 56.6941C83.0712 56.6255 83.0828 56.5569 83.1 56.4882C82.8984 56.5683 81.3143 57.1459 80.1853 55.7162C78.9238 54.1036 78.8028 51.7818 78.8892 50.8268C80.0931 52.1421 81.8212 51.8505 83.0943 53.4688C83.2959 53.7262 83.4226 53.9778 83.509 54.2237C83.6876 52.8626 83.751 51.4902 83.7106 50.1177C83.5205 50.255 82.1381 51.1871 80.7037 50.0834C79.0736 48.8368 78.3765 46.6179 78.221 45.6687C79.7187 46.6465 81.3201 45.9317 82.956 47.1898C83.2037 47.3785 83.3881 47.5844 83.5321 47.796C83.4111 46.7895 83.2268 45.7887 82.9906 44.8051C82.956 44.6965 82.9272 44.5878 82.9042 44.4677C82.8523 44.2676 82.8005 44.0674 82.7487 43.8673C82.6046 44.0274 81.4526 45.2569 79.7994 44.4792C77.9388 43.6042 76.7809 41.5856 76.418 40.6935C78.0943 41.3282 79.4998 40.2932 81.3719 41.1738C81.6196 41.2882 81.8212 41.4312 81.994 41.5799C81.7982 41.0652 81.5966 40.5619 81.3719 40.0644C81.0609 39.3782 80.7095 38.7148 80.3466 38.0572C80.2141 38.2859 79.35 39.6641 77.5989 39.2581C75.5943 38.7949 74.0332 37.0622 73.4918 36.2673C75.266 36.536 76.418 35.2322 78.4342 35.7011C78.6415 35.7469 78.8259 35.8155 78.9929 35.8956C78.2844 34.8719 77.5067 33.8998 76.6657 32.9848C76.6081 33.2421 76.1819 34.809 74.3846 34.9234C72.3339 35.0549 70.3293 33.8483 69.5805 33.2364C71.3547 32.9848 72.0805 31.4007 74.1484 31.2749C74.4998 31.2521 74.7994 31.2921 75.0643 31.3721C74.7648 31.0919 74.4653 30.8174 74.1542 30.5487C73.5782 30.0569 72.9733 29.5937 72.357 29.1533C72.3109 29.3821 71.9422 31.0004 70.1277 31.1606C68.077 31.3436 66.0494 30.1884 65.2833 29.5994C67.0517 29.302 67.7372 27.7008 69.7994 27.5178C69.8109 27.5178 69.8167 27.5178 69.8224 27.5178C69.7187 27.4606 69.6208 27.3977 69.5229 27.3405C69.1715 27.1404 68.8086 26.9574 68.4457 26.7744C67.9503 26.9803 67.0575 27.1804 65.8823 26.7744C64.2349 26.1968 63.0252 24.6757 62.5068 23.3204C64.0909 24.1781 66.0667 22.5712 67.8178 23.6978C69.0966 24.5213 69.039 25.7679 68.9469 26.2997C69.7763 26.7229 70.5828 27.1804 71.3662 27.6722C70.8017 25.8137 71.9077 24.5613 71.4641 22.8857C72.3224 23.3375 74.2176 24.6985 74.8915 26.6314C75.5252 28.4499 73.9814 29.4679 73.9468 29.4907C74.1945 29.6852 74.4365 29.8796 74.6726 30.0855C75.2487 30.5773 75.7959 31.0919 76.3316 31.6238C76.3316 31.5952 76.3201 31.5666 76.3201 31.538C76.1991 29.485 77.6911 28.5758 77.7256 26.7973C78.4284 27.4606 79.88 29.2849 80.001 31.3207C80.1104 33.1449 78.5148 33.7454 78.3247 33.814C79.1657 34.8433 79.9376 35.9356 80.6231 37.0793C80.9975 35.3523 82.4146 34.6661 82.7141 33.042C83.2959 33.8083 84.4307 35.8441 84.2175 37.8742C84.0275 39.6813 82.3742 40.0244 82.1611 40.0587C82.5643 40.9737 82.9157 41.9058 83.2152 42.8551C83.9641 41.3054 85.4618 40.9279 86.1012 39.4239C86.5044 40.2989 87.1726 42.5234 86.5274 44.462C85.9456 46.2062 84.2233 46.1662 84.039 46.1605C84.2233 47.1498 84.35 48.1562 84.4307 49.1684C85.5424 47.7902 87.1208 47.8074 88.1231 46.4864C88.3016 47.43 88.3938 49.7574 87.2878 51.4787C86.2913 53.0285 84.638 52.571 84.4537 52.5195C84.3846 53.5718 84.2579 54.624 84.0851 55.6648C85.5943 54.4467 87.1899 54.9785 88.5781 53.9377C88.486 54.8928 87.9387 57.1573 86.4007 58.5069C84.9837 59.7536 83.4802 58.7928 83.3823 58.7299C83.1231 59.5763 82.8178 60.4169 82.4894 61.229C82.4146 61.412 82.3339 61.5835 82.2533 61.7665C82.2763 61.7551 82.2936 61.7436 82.3166 61.7322C84.1887 60.8573 85.5943 61.898 87.2705 61.269C86.9076 62.1611 85.744 64.174 83.8834 65.0433C82.1784 65.8382 81.009 64.5172 80.9284 64.4142C80.6288 64.9403 80.3178 65.455 79.9837 65.964C79.5862 66.5701 79.1542 67.142 78.7107 67.7081C80.6576 67.3136 81.804 68.5602 83.5436 68.2914C83.0079 69.092 81.4468 70.8248 79.4422 71.2937C77.5355 71.7397 76.6715 70.0642 76.6715 70.0642C76.4987 70.2415 76.3316 70.4245 76.1588 70.6017C75.6001 71.1908 74.9779 71.7398 74.3385 72.2601C76.3086 72.3288 77.1381 73.7927 78.8835 73.93C78.1749 74.5876 76.251 75.9143 74.1945 75.9086C72.3627 75.9086 71.8501 74.3074 71.7925 74.1015C71.6773 74.1759 71.5563 74.2617 71.4411 74.336" fill="#A88157"/>
<path d="M25.1437 71.7979C25.3558 71.7127 26.8691 71.02 26.6513 69.2316C26.4105 67.2161 24.8571 65.4958 24.1176 64.8826C24.1922 66.6483 22.7649 67.6362 23.0056 69.6631C23.0228 69.8164 23.0572 69.9527 23.0916 70.0832C22.8623 69.8732 22.633 69.6631 22.4152 69.4417C21.7961 68.8228 21.2 68.1813 20.6382 67.5113C20.8503 67.4659 22.484 67.0798 22.6158 65.2744C22.7649 63.2531 21.5726 61.2717 20.965 60.5279C20.7013 62.2766 19.1077 62.9806 18.9587 65.0132C18.953 65.1097 18.953 65.2062 18.9587 65.2971C18.288 64.3205 17.6861 63.2986 17.1645 62.2369C17.3709 62.2653 19.0504 62.4299 19.7727 60.7664C20.5809 58.9041 20.1109 56.6445 19.7841 55.7474C18.9587 57.3144 17.2161 57.462 16.4079 59.3356C16.3047 59.5741 16.2474 59.8012 16.213 60.0113C15.7716 58.8474 15.4047 57.6664 15.1124 56.4514C15.0952 56.3833 15.0837 56.3152 15.0665 56.247C15.2672 56.3265 16.8435 56.9 17.967 55.4806C19.2224 53.8795 19.3427 51.5744 19.2568 50.6263C18.0587 51.9321 16.3391 51.6426 15.0723 53.2493C14.8716 53.5048 14.7455 53.7546 14.6596 53.9987C14.4819 52.6475 14.4188 51.2849 14.4589 49.9223C14.6481 50.0585 16.0238 50.984 17.4511 49.8882C19.0733 48.6505 19.7669 46.4476 19.9217 45.5051C18.4313 46.476 16.8378 45.7663 15.2098 47.0153C14.9634 47.2027 14.7799 47.4071 14.6366 47.6172C14.757 46.6179 14.9404 45.6243 15.1754 44.6478C15.2098 44.5399 15.2385 44.4321 15.2614 44.3128C15.313 44.1141 15.3646 43.9154 15.4162 43.7167C15.5595 43.8757 16.7059 45.0963 18.3511 44.3242C20.2026 43.4555 21.3547 41.4513 21.7159 40.5656C20.0478 41.1959 18.6491 40.1682 16.7862 41.0426C16.5397 41.1561 16.3391 41.2981 16.1671 41.4457C16.362 40.9347 16.5626 40.4351 16.7862 39.9411C17.0957 39.2598 17.4454 38.6012 17.8065 37.9483C17.9384 38.1754 18.7982 39.5437 20.5408 39.1406C22.5356 38.6807 24.089 36.9604 24.6278 36.1712C22.8623 36.4381 21.7159 35.1436 19.7096 35.6091C19.5032 35.6546 19.3198 35.7227 19.1536 35.8022C19.8586 34.7859 20.6325 33.8207 21.4694 32.9123C21.5267 33.1678 21.9509 34.7234 23.7393 34.837C25.78 34.9676 27.7748 33.7696 28.52 33.1621C26.7544 32.9123 26.0322 31.3396 23.9743 31.2147C23.6247 31.192 23.3266 31.2317 23.0629 31.3112C23.361 31.033 23.6591 30.7605 23.9686 30.4937C24.5418 30.0054 25.1437 29.5455 25.757 29.1083C25.8029 29.3354 26.1698 30.9422 27.9754 31.1012C30.0161 31.2828 32.0338 30.136 32.7962 29.5512C31.0364 29.256 30.3543 27.6662 28.3021 27.4846C28.2907 27.4846 28.2849 27.4846 28.2792 27.4846C28.3824 27.4278 28.4798 27.3653 28.5773 27.3086C28.9269 27.1098 29.2881 26.9282 29.6492 26.7465C30.1422 26.9509 31.0307 27.1496 32.2 26.7465C33.8394 26.173 35.0432 24.6628 35.5591 23.3172C33.9827 24.1689 32.0166 22.5735 30.274 23.692C29.0015 24.5095 29.0588 25.7472 29.1505 26.2752C28.3251 26.6954 27.5226 27.1496 26.743 27.6379C27.3047 25.7926 26.2042 24.5493 26.6455 22.8857C25.7914 23.3343 23.9056 24.6855 23.2349 26.6045C22.6043 28.41 24.1406 29.4206 24.175 29.4433C23.9285 29.6364 23.6877 29.8294 23.4527 30.0338C22.8795 30.5221 22.3349 31.033 21.8018 31.561C21.8018 31.5327 21.8133 31.5043 21.8133 31.4759C21.9337 29.4376 20.4491 28.5349 20.4147 26.7692C19.7153 27.4278 18.2708 29.2389 18.1504 31.2601C18.0415 33.0713 19.6294 33.6674 19.8185 33.7355C18.9816 34.7575 18.2135 35.8419 17.5314 36.9774C17.1588 35.2628 15.7487 34.5815 15.4506 32.9691C14.8716 33.7299 13.7424 35.7511 13.9545 37.7666C14.1437 39.5607 15.7888 39.9014 16.0009 39.9354C15.5996 40.8438 15.25 41.7693 14.9519 42.7118C14.2067 41.1731 12.7163 40.7984 12.0801 39.3052C11.6788 40.1739 11.0139 42.3825 11.6559 44.3072C12.2348 46.0388 13.9488 45.9991 14.1322 45.9934C13.9488 46.9756 13.8227 47.9749 13.7424 48.9798C12.6361 47.6115 11.0655 47.6285 10.0681 46.317C9.89038 47.2538 9.79867 49.5646 10.8992 51.2735C11.8909 52.8121 13.536 52.3579 13.7195 52.3068C13.7883 53.3515 13.9144 54.3962 14.0863 55.4295C12.5845 54.2202 10.9967 54.7482 9.61524 53.7149C9.70695 54.663 10.2515 56.9113 11.782 58.2512C13.1921 59.4889 14.6882 58.5351 14.7857 58.4726C15.0436 59.3129 15.3474 60.1475 15.6742 60.9537C15.7487 61.1354 15.8289 61.3057 15.9092 61.4874C15.8862 61.4761 15.869 61.4647 15.8461 61.4534C13.9832 60.5847 12.5845 61.618 10.9164 60.9935C11.2776 61.8792 12.4355 63.8777 14.287 64.7407C15.9837 65.5298 17.1473 64.2183 17.2276 64.1161C17.5256 64.6385 17.8352 65.1494 18.1676 65.6548C18.5632 66.2566 18.9931 66.8243 19.4345 67.3864C17.497 66.9947 16.3563 68.2324 14.6252 67.9655C15.1583 68.7604 16.7117 70.4807 18.7065 70.9462C20.6038 71.3891 21.4637 69.7256 21.4637 69.7256C21.6356 69.9016 21.8018 70.0832 21.9738 70.2592C22.5298 70.844 23.1489 71.3891 23.7852 71.9057C21.8248 71.9739 20.9993 73.4273 19.2625 73.5636C19.9676 74.2165 21.8821 75.5337 23.9285 75.528C25.7513 75.528 26.2615 73.9383 26.3188 73.7339C26.4334 73.8077 26.5538 73.8929 26.6685 73.9667" fill="#A88157"/>
<path d="M42.8574 66.8564V32.8564L33.8574 41.3564" stroke="#A88157" stroke-width="1.71544" stroke-linecap="round" stroke-linejoin="round"/>
<path d="M56.1334 58.3272C56.1334 58.858 56.003 59.3516 55.7421 59.8082C55.4813 60.2647 55.0845 60.6362 54.5519 60.9229C54.0194 61.2095 53.3618 61.3529 52.5792 61.3529C51.8184 61.3529 51.1391 61.2202 50.5413 60.9547C49.9543 60.6787 49.4815 60.3071 49.1228 59.84C48.9455 59.5964 48.8063 59.3362 48.7052 59.0594C48.5456 58.6222 48.9206 58.2157 49.386 58.2157C49.7922 58.2157 50.1226 58.5323 50.2925 58.9013C50.3317 58.9863 50.3766 59.071 50.4271 59.1552C50.6228 59.4525 50.8945 59.702 51.2423 59.9037C51.601 60.0948 52.0303 60.1904 52.5303 60.1904C53.1824 60.1904 53.6824 60.0205 54.0302 59.6808C54.378 59.341 54.5519 58.9058 54.5519 58.3749C54.5519 57.9184 54.427 57.5468 54.177 57.2602C53.9378 56.9735 53.6389 56.7506 53.2803 56.5914C52.9216 56.4215 52.4325 56.241 51.8129 56.0499C51.0847 55.8163 50.4978 55.5987 50.0522 55.397C49.6174 55.1847 49.2424 54.8715 48.9272 54.4574C48.6229 54.0434 48.4707 53.4966 48.4707 52.8172C48.4707 52.2333 48.612 51.7184 48.8946 51.2725C49.1881 50.8266 49.6011 50.4815 50.1337 50.2374C50.6771 49.9932 51.313 49.8711 52.0412 49.8711C53.1716 49.8711 54.0683 50.1418 54.7313 50.6833C55.1391 51.0098 55.4421 51.3926 55.6402 51.8316C55.8423 52.2795 55.4528 52.7216 54.9614 52.7216C54.5721 52.7216 54.2519 52.4334 54.0539 52.0982C53.9367 51.8997 53.782 51.7147 53.59 51.5432C53.2096 51.2035 52.6933 51.0336 52.0412 51.0336C51.4434 51.0336 50.9652 51.1875 50.6065 51.4954C50.2478 51.7927 50.0685 52.2173 50.0685 52.7694C50.0685 53.2047 50.1826 53.5603 50.4108 53.8364C50.65 54.1018 50.9434 54.3141 51.2912 54.4734C51.639 54.622 52.1173 54.7919 52.7259 54.9829C53.465 55.2165 54.0574 55.4395 54.503 55.6518C54.9595 55.8641 55.3454 56.1879 55.6606 56.6232C55.9758 57.0479 56.1334 57.6158 56.1334 58.3272Z" fill="#A88157"/>
<path d="M64.5822 50.0144C64.9077 50.0144 65.1715 50.2782 65.1715 50.6036C65.1715 50.929 64.9077 51.1929 64.5822 51.1929H61.927V60.4996C61.927 60.9093 61.5949 61.2414 61.1852 61.2414C60.7755 61.2414 60.4434 60.9093 60.4434 60.4996V51.1929H57.7882C57.4628 51.1929 57.199 50.929 57.199 50.6036C57.199 50.2782 57.4628 50.0144 57.7882 50.0144H64.5822Z" fill="#A88157"/>
<path d="M44.1857 68.1166H49.7849C50.2115 68.1166 50.5573 67.7708 50.5573 67.3442C50.5573 66.9176 50.2115 66.5718 49.7849 66.5718H35.6728C35.2462 66.5718 34.9004 66.9176 34.9004 67.3442C34.9004 67.7708 35.2462 68.1166 35.6728 68.1166H41.272H44.1857Z" fill="#A88157"/>
</svg>
