<svg width="96" height="91" viewBox="0 0 96 91" fill="none" xmlns="http://www.w3.org/2000/svg">
<g clip-path="url(#clip0_178_4122)">
<path fill-rule="evenodd" clip-rule="evenodd" d="M36.7467 84.6254C36.7235 86.0541 36.7058 86.8896 36.7035 86.9298C36.7035 86.9298 36.6671 87.1236 36.6671 87.2084C36.4491 89.0858 34.8503 90.503 32.9608 90.503H15.0225C13.1815 90.503 11.5948 89.1222 11.3283 87.2932C11.3162 87.1842 11.2919 86.9177 11.2919 86.8935C11.2798 86.7239 10.868 65.6849 11.3525 50.9201C11.6069 43.0713 13.9203 36.8577 16.476 31.8554C16.5134 31.7829 16.5506 31.7105 16.5878 31.6383C17.3706 30.1195 18.1117 28.6815 18.632 27.3981C20.2429 23.51 20.037 12.0397 19.8553 6.77089C19.1407 6.54075 18.6441 5.78979 18.6441 4.9056V3.20988C18.6441 2.1567 19.3579 1.28501 20.2293 1.28403C20.2254 1.22029 20.2209 1.16026 20.2168 1.10375C20.1682 0.447778 20.1548 0.266602 21.3693 0.266602H26.614C27.6811 0.266602 27.7987 0.492143 27.7539 1.28403C28.6254 1.28496 29.3392 2.14458 29.3392 3.20988V4.9056C29.3392 5.81402 28.8305 6.57709 28.128 6.783C27.9463 12.0639 27.7525 23.51 29.3513 27.3981C29.8519 28.6216 30.5567 29.9983 31.3063 31.4626C31.373 31.5929 31.44 31.7238 31.5073 31.8554C31.6848 32.2011 31.861 32.5525 32.0354 32.9099H30.8814C30.8117 32.7715 30.7417 32.6339 30.6716 32.4973C30.606 32.3691 30.5407 32.2415 30.4757 32.1145C29.7119 30.6218 28.9918 29.2147 28.4671 27.931C26.7835 23.825 26.9289 12.5727 27.1711 6.22583C27.1832 5.91092 27.4013 5.66867 27.6556 5.66867C28.0917 5.66867 28.3702 5.32953 28.3702 4.91771V3.22199C28.3702 2.81018 28.0917 2.47103 27.7525 2.47103H20.2308C19.8917 2.47103 19.6131 2.81018 19.6131 3.22199V4.91771C19.6131 5.32953 19.8917 5.66867 20.2308 5.66867C20.4973 5.66867 20.8122 5.91092 20.8122 6.22583C21.0544 12.5727 21.1998 23.825 19.5041 27.931C18.9605 29.2611 18.2071 30.7236 17.4125 32.266C17.375 32.3389 17.3373 32.412 17.2996 32.4852C14.7924 37.3665 12.5516 43.4347 12.3094 50.9685C11.837 65.6728 12.2367 86.6513 12.2488 86.8572C12.2488 86.8665 12.2525 86.8959 12.2569 86.9319C12.264 86.9888 12.273 87.0623 12.273 87.0994C12.4547 88.3712 13.6417 89.3402 15.0225 89.3402H32.9608C34.3537 89.3402 35.5528 88.3227 35.7103 87.0388L35.7345 86.845L35.7224 86.8572C35.7247 86.8175 35.7414 86.0095 35.7634 84.6254H36.7467Z" fill="#A88157"/>
<path d="M36.7035 86.9298L36.9246 86.9713L36.9272 86.9573L36.9281 86.943L36.7035 86.9298ZM36.7467 84.6254L36.9717 84.629L36.9754 84.4004H36.7467V84.6254ZM36.6671 87.2084L36.8906 87.2344L36.8921 87.2214V87.2084H36.6671ZM11.3283 87.2932L11.1045 87.3181L11.1056 87.3256L11.3283 87.2932ZM11.2919 86.8935H11.5169V86.8855L11.5164 86.8775L11.2919 86.8935ZM11.3525 50.9201L11.5774 50.9275L11.5774 50.9274L11.3525 50.9201ZM16.476 31.8554L16.276 31.7523L16.2756 31.753L16.476 31.8554ZM16.5878 31.6383L16.7878 31.7414L16.5878 31.6383ZM18.632 27.3981L18.4241 27.3119L18.4235 27.3135L18.632 27.3981ZM19.8553 6.77089L20.0802 6.76313L20.0747 6.60517L19.9243 6.55672L19.8553 6.77089ZM20.2293 1.28403L20.2296 1.50903L20.4687 1.50877L20.4539 1.27014L20.2293 1.28403ZM20.2168 1.10375L19.9924 1.12036V1.12036L20.2168 1.10375ZM27.7539 1.28403L27.5293 1.27134L27.5159 1.50878L27.7537 1.50903L27.7539 1.28403ZM28.128 6.783L28.0647 6.56708L27.9087 6.6128L27.9031 6.77526L28.128 6.783ZM29.3513 27.3981L29.5596 27.3129L29.5594 27.3125L29.3513 27.3981ZM31.3063 31.4626L31.5066 31.3601L31.3063 31.4626ZM31.5073 31.8554L31.307 31.9578L31.3071 31.9581L31.5073 31.8554ZM32.0354 32.9099V33.1349H32.3956L32.2376 32.8112L32.0354 32.9099ZM30.8814 32.9099L30.6804 33.0111L30.7428 33.1349H30.8814V32.9099ZM30.6716 32.4973L30.4712 32.5997L30.4714 32.6001L30.6716 32.4973ZM30.4757 32.1145L30.676 32.012L30.4757 32.1145ZM28.4671 27.931L28.6754 27.8459L28.6753 27.8456L28.4671 27.931ZM27.1711 6.22583L26.9463 6.21719L26.9463 6.21725L27.1711 6.22583ZM20.8122 6.22583H20.587L20.5873 6.23442L20.8122 6.22583ZM19.5041 27.931L19.2961 27.8451L19.2958 27.8459L19.5041 27.931ZM17.4125 32.266L17.6126 32.369L17.4125 32.266ZM17.2996 32.4852L17.0996 32.3822L17.0995 32.3824L17.2996 32.4852ZM12.3094 50.9685L12.0845 50.9613L12.0845 50.9613L12.3094 50.9685ZM12.2488 86.8572H12.4742L12.4734 86.8439L12.2488 86.8572ZM12.2569 86.9319L12.4802 86.9043H12.4802L12.2569 86.9319ZM12.273 87.0994H12.048V87.1154L12.0503 87.1312L12.273 87.0994ZM35.7103 87.0388L35.487 87.0109L35.4869 87.0115L35.7103 87.0388ZM35.7345 86.845L35.9578 86.873L36.0391 86.222L35.5754 86.686L35.7345 86.845ZM35.7224 86.8572L35.4978 86.8439L35.463 87.4349L35.8815 87.0162L35.7224 86.8572ZM35.7634 84.6254V84.4004H35.542L35.5385 84.6218L35.7634 84.6254ZM36.9281 86.943C36.9308 86.8965 36.9485 86.0532 36.9717 84.629L36.5217 84.6217C36.5101 85.3359 36.4999 85.9017 36.4923 86.2939C36.4885 86.4901 36.4854 86.6427 36.483 86.7487C36.4818 86.8018 36.4809 86.843 36.4801 86.8721C36.4798 86.8867 36.4795 86.898 36.4792 86.9062C36.4789 86.9157 36.4788 86.9179 36.4789 86.9166L36.9281 86.943ZM36.8921 87.2084C36.8921 87.1858 36.8983 87.1327 36.9077 87.0715C36.9119 87.0439 36.9162 87.0186 36.9194 87.0002C36.921 86.991 36.9224 86.9836 36.9233 86.9786C36.9237 86.9761 36.9241 86.9742 36.9243 86.9729C36.9244 86.9723 36.9245 86.9718 36.9246 86.9716C36.9246 86.9714 36.9246 86.9713 36.9246 86.9713C36.9246 86.9713 36.9246 86.9713 36.9246 86.9713C36.9246 86.9713 36.9246 86.9713 36.9246 86.9713C36.9246 86.9713 36.9246 86.9713 36.9246 86.9713C36.9246 86.9713 36.9246 86.9713 36.7035 86.9298C36.4823 86.8884 36.4823 86.8884 36.4823 86.8884C36.4823 86.8884 36.4823 86.8884 36.4823 86.8884C36.4823 86.8884 36.4823 86.8885 36.4823 86.8885C36.4823 86.8885 36.4823 86.8886 36.4823 86.8886C36.4823 86.8888 36.4822 86.889 36.4822 86.8892C36.4821 86.8897 36.482 86.8903 36.4818 86.8911C36.4815 86.8928 36.4811 86.8951 36.4805 86.8981C36.4795 86.904 36.478 86.9124 36.4762 86.9227C36.4726 86.9433 36.4678 86.9717 36.4629 87.0031C36.4542 87.0601 36.4421 87.1462 36.4421 87.2084H36.8921ZM32.9608 90.728C34.964 90.728 36.6594 89.2258 36.8906 87.2344L36.4436 87.1825C36.2389 88.9459 34.7366 90.278 32.9608 90.278V90.728ZM15.0225 90.728H32.9608V90.278H15.0225V90.728ZM11.1056 87.3256C11.3881 89.2642 13.0687 90.728 15.0225 90.728V90.278C13.2942 90.278 11.8014 88.9801 11.5509 87.2608L11.1056 87.3256ZM11.0669 86.8935C11.0669 86.9189 11.0747 87.007 11.0815 87.0819C11.0891 87.1656 11.0983 87.2612 11.1047 87.3181L11.5519 87.2684C11.5461 87.2162 11.5372 87.1241 11.5296 87.0412C11.5259 86.9999 11.5226 86.9617 11.5202 86.9325C11.5173 86.8968 11.5169 86.8878 11.5169 86.8935H11.0669ZM11.1276 50.9127C10.643 65.6809 11.0546 86.7287 11.0675 86.9095L11.5164 86.8775C11.5165 86.879 11.5158 86.8611 11.5146 86.8117C11.5135 86.7669 11.512 86.7024 11.5103 86.619C11.5067 86.4522 11.5019 86.2105 11.4962 85.9005C11.4847 85.2805 11.4695 84.3873 11.4531 83.2741C11.4204 81.0477 11.3829 77.9412 11.361 74.3786C11.3171 67.2529 11.3353 58.3054 11.5774 50.9275L11.1276 50.9127ZM16.2756 31.753C13.7099 36.7749 11.3834 43.0213 11.1276 50.9128L11.5774 50.9274C11.8304 43.1213 14.1307 36.9406 16.6764 31.9577L16.2756 31.753ZM16.3878 31.5353C16.3506 31.6074 16.3134 31.6798 16.276 31.7523L16.676 31.9584C16.7134 31.8859 16.7506 31.8136 16.7878 31.7414L16.3878 31.5353ZM18.4235 27.3135C17.9078 28.5856 17.1719 30.0138 16.3878 31.5353L16.7878 31.7414C17.5692 30.2253 18.3155 28.7775 18.8405 27.4826L18.4235 27.3135ZM19.6305 6.77864C19.7212 9.4112 19.8179 13.5903 19.691 17.5951C19.6275 19.5977 19.5082 21.5535 19.3049 23.2489C19.101 24.9492 18.8145 26.3697 18.4241 27.3119L18.8398 27.4842C19.2549 26.4824 19.5468 25.0111 19.7517 23.3025C19.9572 21.5891 20.0771 19.619 20.1408 17.6094C20.2682 13.5899 20.1711 9.39941 20.0802 6.76313L19.6305 6.77864ZM18.4191 4.9056C18.4191 5.86778 18.9613 6.71935 19.7863 6.98506L19.9243 6.55672C19.3201 6.36216 18.8691 5.7118 18.8691 4.9056H18.4191ZM18.4191 3.20988V4.9056H18.8691V3.20988H18.4191ZM20.2291 1.05903C19.1945 1.06019 18.4191 2.07557 18.4191 3.20988H18.8691C18.8691 2.23784 19.5214 1.50983 20.2296 1.50903L20.2291 1.05903ZM19.9924 1.12036C19.9966 1.17702 20.0009 1.23574 20.0048 1.29792L20.4539 1.27014C20.4499 1.20484 20.4453 1.1435 20.4411 1.08714L19.9924 1.12036ZM21.3693 0.0416016C21.0629 0.0416016 20.8213 0.0528356 20.6342 0.0830332C20.4502 0.112719 20.2884 0.165063 20.1694 0.271439C20.0415 0.385753 19.9958 0.531982 19.9817 0.673886C19.9684 0.806935 19.9808 0.963555 19.9924 1.12036L20.4411 1.08714C20.4285 0.91596 20.4209 0.803943 20.4295 0.71853C20.4371 0.641971 20.4548 0.61991 20.4693 0.606934C20.4927 0.58602 20.5523 0.552071 20.7059 0.527287C20.8563 0.503015 21.0685 0.491602 21.3693 0.491602V0.0416016ZM26.614 0.0416016H21.3693V0.491602H26.614V0.0416016ZM27.9786 1.29673C27.9899 1.09656 27.9924 0.91328 27.9669 0.755108C27.9406 0.592606 27.8822 0.440001 27.7591 0.318339C27.6383 0.198961 27.4784 0.132387 27.2946 0.0939733C27.1115 0.0557168 26.8859 0.0416016 26.614 0.0416016V0.491602C26.8756 0.491602 27.0649 0.505679 27.2026 0.534458C27.3395 0.563081 27.4063 0.602384 27.4427 0.638379C27.4769 0.672088 27.5061 0.724348 27.5226 0.826853C27.5399 0.933689 27.5403 1.07556 27.5293 1.27134L27.9786 1.29673ZM29.5642 3.20988C29.5642 2.06246 28.788 1.06013 27.7542 1.05903L27.7537 1.50903C28.4627 1.50978 29.1142 2.22669 29.1142 3.20988H29.5642ZM29.5642 4.9056V3.20988H29.1142V4.9056H29.5642ZM28.1913 6.99892C29.0122 6.75831 29.5642 5.8883 29.5642 4.9056H29.1142C29.1142 5.73973 28.6488 6.39587 28.0647 6.56708L28.1913 6.99892ZM29.5594 27.3125C29.1718 26.37 28.8869 24.9508 28.6835 23.2526C28.4808 21.5592 28.3611 19.606 28.2969 17.6057C28.1684 13.6053 28.2621 9.42923 28.3529 6.79073L27.9031 6.77526C27.8122 9.41772 27.7182 13.6052 27.8471 17.6201C27.9115 19.6274 28.0318 21.5948 28.2367 23.3061C28.441 25.0125 28.7314 26.4821 29.1432 27.4836L29.5594 27.3125ZM31.5066 31.3601C30.7557 29.8933 30.0557 28.5257 29.5596 27.3129L29.1431 27.4833C29.648 28.7175 30.3577 30.1034 31.1061 31.5652L31.5066 31.3601ZM31.7076 31.753C31.6403 31.6213 31.5733 31.4903 31.5066 31.3601L31.1061 31.5652C31.1727 31.6954 31.2397 31.8263 31.307 31.9578L31.7076 31.753ZM32.2376 32.8112C32.0625 32.4524 31.8856 32.0996 31.7075 31.7526L31.3071 31.9581C31.4839 32.3025 31.6595 32.6526 31.8332 33.0086L32.2376 32.8112ZM30.8814 33.1349H32.0354V32.6849H30.8814V33.1349ZM30.4714 32.6001C30.5413 32.7362 30.611 32.8732 30.6804 33.0111L31.0824 32.8087C31.0124 32.6697 30.9421 32.5317 30.8717 32.3945L30.4714 32.6001ZM30.2754 32.217C30.3404 32.344 30.4057 32.4716 30.4712 32.5997L30.8719 32.3949C30.8064 32.2667 30.741 32.139 30.676 32.012L30.2754 32.217ZM28.2589 28.0161C28.7878 29.3105 29.5128 30.7267 30.2754 32.217L30.676 32.012C29.9109 30.517 29.1957 29.1189 28.6754 27.8459L28.2589 28.0161ZM26.9463 6.21725C26.8251 9.39311 26.728 13.799 26.8721 17.9266C26.9441 19.9902 27.0766 21.9874 27.2971 23.7281C27.5171 25.4649 27.8266 26.9618 28.259 28.0164L28.6753 27.8456C28.2659 26.8472 27.9622 25.3978 27.7435 23.6716C27.5253 21.9493 27.3936 19.9669 27.3218 17.9109C27.1782 13.799 27.2749 9.40539 27.396 6.23442L26.9463 6.21725ZM27.6556 5.44367C27.2471 5.44367 26.9617 5.81773 26.9463 6.21719L27.396 6.23448C27.4048 6.0041 27.5554 5.89367 27.6556 5.89367V5.44367ZM28.1452 4.91771C28.1452 5.22543 27.9481 5.44367 27.6556 5.44367V5.89367C28.2352 5.89367 28.5952 5.43362 28.5952 4.91771H28.1452ZM28.1452 3.22199V4.91771H28.5952V3.22199H28.1452ZM27.7525 2.69603C27.9282 2.69603 28.1452 2.89124 28.1452 3.22199H28.5952C28.5952 2.72911 28.2551 2.24603 27.7525 2.24603V2.69603ZM20.2308 2.69603H27.7525V2.24603H20.2308V2.69603ZM19.8381 3.22199C19.8381 2.89124 20.0551 2.69603 20.2308 2.69603V2.24603C19.7282 2.24603 19.3881 2.72911 19.3881 3.22199H19.8381ZM19.8381 4.91771V3.22199H19.3881V4.91771H19.8381ZM20.2308 5.44367C20.0551 5.44367 19.8381 5.24846 19.8381 4.91771H19.3881C19.3881 5.41059 19.7282 5.89367 20.2308 5.89367V5.44367ZM21.0372 6.22583C21.0372 5.99029 20.9196 5.7936 20.7712 5.66124C20.6246 5.53053 20.4276 5.44367 20.2308 5.44367V5.89367C20.3004 5.89367 20.3941 5.92794 20.4717 5.99707C20.5473 6.06457 20.5872 6.14646 20.5872 6.22583H21.0372ZM19.712 28.0169C20.1476 26.9622 20.4594 25.4652 20.6811 23.7283C20.9033 21.9876 21.0369 19.9903 21.1097 17.9266C21.2553 13.7991 21.1582 9.3931 21.037 6.21725L20.5873 6.23442C20.7084 9.40539 20.8051 13.799 20.66 17.9108C20.5875 19.9668 20.4546 21.9492 20.2347 23.6714C20.0143 25.3975 19.7084 26.8468 19.2961 27.8451L19.712 28.0169ZM17.6126 32.369C18.4058 30.8291 19.1643 29.3572 19.7123 28.0161L19.2958 27.8459C18.7567 29.165 18.0083 30.6181 17.2125 32.163L17.6126 32.369ZM17.4997 32.5882C17.5374 32.515 17.575 32.4419 17.6126 32.369L17.2125 32.163C17.175 32.2359 17.1373 32.3089 17.0996 32.3822L17.4997 32.5882ZM12.5343 50.9758C12.7751 43.4847 15.0028 37.4494 17.4998 32.588L17.0995 32.3824C14.582 37.2836 12.3281 43.3848 12.0845 50.9613L12.5343 50.9758ZM12.4734 86.8439C12.4735 86.845 12.4733 86.8406 12.4729 86.8261C12.4725 86.8133 12.4721 86.7954 12.4715 86.7725C12.4704 86.7266 12.469 86.6613 12.4673 86.5771C12.4638 86.4088 12.4591 86.1659 12.4535 85.855C12.4424 85.2333 12.4276 84.3397 12.4117 83.2273C12.3799 81.0023 12.3436 77.9019 12.3224 74.3484C12.28 67.2408 12.2982 58.3235 12.5343 50.9758L12.0845 50.9613C11.612 65.67 12.0116 86.6556 12.0242 86.8704L12.4734 86.8439ZM12.4802 86.9043C12.4779 86.8859 12.4761 86.8709 12.4748 86.8594C12.4741 86.8536 12.4738 86.85 12.4736 86.8479C12.4735 86.8469 12.4735 86.847 12.4736 86.8479C12.4736 86.8483 12.4738 86.8519 12.4738 86.8572H12.0238C12.0238 86.8772 12.0266 86.9007 12.0276 86.9097C12.0292 86.9243 12.0314 86.942 12.0336 86.9596L12.4802 86.9043ZM12.498 87.0994C12.498 87.0447 12.4863 86.9532 12.4802 86.9043L12.0336 86.9596C12.0416 87.0245 12.048 87.0799 12.048 87.0994H12.498ZM15.0225 89.1152C13.7414 89.1152 12.66 88.2168 12.4958 87.0676L12.0503 87.1312C12.2495 88.5256 13.542 89.5652 15.0225 89.5652V89.1152ZM32.9608 89.1152H15.0225V89.5652H32.9608V89.1152ZM35.4869 87.0115C35.3445 88.1726 34.2504 89.1152 32.9608 89.1152V89.5652C34.457 89.5652 35.7611 88.4729 35.9336 87.0662L35.4869 87.0115ZM35.5112 86.8171L35.487 87.0109L35.9335 87.0668L35.9578 86.873L35.5112 86.8171ZM35.8815 87.0162L35.8936 87.0041L35.5754 86.686L35.5632 86.6981L35.8815 87.0162ZM35.5385 84.6218C35.5275 85.3136 35.5178 85.8614 35.5106 86.2412C35.507 86.431 35.504 86.5788 35.5017 86.6815C35.5006 86.7328 35.4997 86.7728 35.499 86.801C35.4986 86.8151 35.4983 86.8261 35.4981 86.834C35.4978 86.8432 35.4977 86.8453 35.4978 86.8439L35.947 86.8704C35.9497 86.8244 35.9664 86.0084 35.9884 84.6289L35.5385 84.6218ZM36.7467 84.4004H35.7634V84.8504H36.7467V84.4004Z" fill="#A88157"/>
</g>
<path d="M31.6907 44.772C28.1338 44.772 24.3814 44.772 20.325 44.772C19.7727 44.772 19.3247 45.2197 19.3247 45.772V83.7936H79.971V45.772C79.971 45.2197 79.5234 44.772 78.9711 44.772C74.236 44.772 69.1848 44.772 65.1882 44.772" stroke="#A88157" stroke-width="1.72" stroke-linejoin="round"/>
<path d="M64.4983 31.3732C64.4388 31.2794 64.3716 31.1907 64.2977 31.1078L64.294 31.076C63.6867 30.3951 62.7986 30.033 61.8881 30.0949L61.6168 30.1264C58.1884 30.5246 53.5679 35.3838 51.1043 38.2825C50.0037 37.996 48.8354 38.1316 47.8298 38.6628C44.6681 36.3438 38.8387 32.5287 35.439 33.1754L35.4391 33.1757C34.5386 33.3238 33.7575 33.88 33.3221 34.682L33.3257 34.7135C33.2728 34.8114 33.228 34.9132 33.1916 35.0178C32.0904 37.6473 31.4664 40.4515 31.3479 43.2997C31.3029 44.652 31.8165 45.9634 32.7682 46.9256C33.9721 48.124 35.6008 48.7981 37.2997 48.8013C37.7166 48.7986 38.1599 48.7884 38.617 48.7766L38.6167 48.7766C38.1126 49.5785 37.6984 50.4337 37.3819 51.3267C36.4341 53.9301 36.5242 56.7987 37.6337 59.3375C37.7273 59.5242 37.9359 59.6237 38.14 59.5783C38.3439 59.5329 38.4907 59.3547 38.4962 59.1456C38.6002 56.6078 41.0089 55.7963 42.1173 55.5528L42.1174 55.5532C42.0594 58.3001 42.9117 60.9893 44.5413 63.2017C44.6394 63.3246 44.7942 63.3881 44.9503 63.3697C44.9946 63.3709 45.0387 63.3658 45.0815 63.3544C45.2724 63.2715 45.383 63.07 45.3502 62.8647C44.5244 57.3731 48.3961 50.0151 49.9854 47.2824L50.4107 47.233L50.8359 47.1836C53.0092 49.4799 58.464 55.7544 58.9167 61.2713C58.9318 61.4786 59.0856 61.6494 59.2903 61.6861C59.3346 61.6877 59.3788 61.6825 59.4216 61.6708C59.5778 61.653 59.7139 61.556 59.7812 61.4139C60.8604 58.887 61.0738 56.074 60.3878 53.4131C61.5225 53.3958 64.0531 53.6337 64.736 56.0804C64.7915 56.2802 64.9752 56.4171 65.1826 56.4135C65.382 56.4038 65.5517 56.2651 65.6012 56.0717C66.1012 53.3537 65.539 50.5476 64.0308 48.2323C63.5238 47.4374 62.9311 46.7005 62.2631 46.0356C62.7107 45.9424 63.1581 45.8492 63.551 45.7578L63.551 45.7575C65.247 45.3863 66.7213 44.3457 67.6392 42.8716C68.3444 41.7166 68.5453 40.3235 68.1955 39.0163C67.4248 36.27 66.173 33.6822 64.4981 31.3734L64.4983 31.3732ZM61.6459 31.0078L61.8721 30.9815L61.8718 30.9815C62.5181 30.9244 63.1531 31.1771 63.583 31.6628C63.8706 31.9264 63.9879 32.3278 63.8872 32.7046C63.3041 34.8673 57.2129 37.5181 52.7711 39.1386C52.5143 38.9318 52.237 38.752 51.9434 38.6023C54.3881 35.7742 58.6513 31.3555 61.6452 31.0078L61.6459 31.0078ZM34.0226 35.1048C34.3297 34.5335 34.8898 34.1417 35.532 34.0492L35.7583 34.023C38.7522 33.6753 43.8967 37.0018 46.9423 39.192L46.9421 39.1924C46.6905 39.4051 46.4618 39.6437 46.2592 39.9041C41.5646 39.3446 35.0284 38.1602 33.9656 36.1979L33.966 36.1979C33.7777 35.8517 33.7994 35.4297 34.0222 35.1049L34.0226 35.1048ZM37.2814 47.891C35.7928 47.9203 34.3555 47.3467 33.2964 46.3001C32.5193 45.5171 32.0971 44.4493 32.1285 43.3463C32.2289 41.1464 32.6366 38.9714 33.3401 36.8846C34.9733 39.1061 41.4212 40.2365 45.7363 40.7624L45.7359 40.7621C45.4846 41.2987 45.3403 41.8792 45.3112 42.4709C42.9578 43.8549 40.8927 45.6791 39.2288 47.8436C38.5676 47.8746 37.8863 47.8895 37.2816 47.891L37.2814 47.891ZM44.317 61.1096C43.3366 59.2474 42.9032 57.1459 43.0676 55.0482C43.081 54.913 43.0335 54.7791 42.9382 54.6827C42.8416 54.5859 42.7061 54.5373 42.5699 54.5512L42.4929 54.5602C41.136 54.7177 38.8546 55.5189 37.9648 57.4879C37.4864 55.5381 37.5863 53.4907 38.2527 51.5965C39.3086 48.5722 41.7112 45.8548 45.3798 43.4988C45.5375 44.4081 45.9664 45.2485 46.61 45.9098C47.2538 46.5714 48.0822 47.0229 48.9869 47.2053C47.4132 49.9185 44.3707 55.8869 44.3216 61.109L44.317 61.1096ZM50.3081 46.3464C49.3402 46.4588 48.3671 46.182 47.6029 45.5769C46.8391 44.9718 46.3468 44.0882 46.2344 43.12C46.122 42.1521 46.3987 41.179 47.0035 40.4152C47.6086 39.6511 48.4925 39.1587 49.4604 39.0463C50.4283 38.9339 51.4014 39.2106 52.1656 39.8157C52.9294 40.4206 53.4217 41.3044 53.5341 42.2723C53.6453 43.2403 53.3681 44.2126 52.7632 44.9763C52.1587 45.7401 51.2756 46.2327 50.3081 46.3464L50.3081 46.3464ZM63.251 48.6937C64.3334 50.3848 64.8998 52.3548 64.881 54.3624C63.5368 52.6164 61.0933 52.3773 59.739 52.5576C59.6033 52.5753 59.4829 52.6535 59.411 52.77C59.34 52.8856 59.3244 53.0269 59.3685 53.1554C60.0022 55.1627 60.0544 57.3085 59.5187 59.3445C58.2742 54.2727 53.9446 49.16 51.7938 46.8616C52.623 46.4772 53.3183 45.8536 53.7902 45.071C54.2624 44.2884 54.4894 43.3824 54.4422 42.4699C58.5775 43.8963 61.5301 45.9921 63.251 48.694L63.251 48.6937ZM66.8569 42.4029C66.0668 43.6659 64.7993 44.5555 63.3431 44.8691C62.7541 45.0063 62.11 45.1454 61.4369 45.2692C59.3224 43.5394 56.8939 42.2336 54.2841 41.4246C54.1201 40.855 53.8467 40.3234 53.4791 39.8586C57.5587 38.3582 63.5802 35.7794 64.6567 33.2432L64.6564 33.2433C65.8194 35.1136 66.7147 37.1373 67.3166 39.2557C67.6036 40.3233 67.4372 41.462 66.8571 42.403L66.8569 42.4029Z" fill="#A88157" stroke="#A88157" stroke-width="0.7"/>
<defs>
<clipPath id="clip0_178_4122">
<rect width="26.3078" height="90.7935" fill="white" transform="translate(10.8438)"/>
</clipPath>
</defs>
</svg>
