<svg width="96" height="90" viewBox="0 0 96 90" fill="none" xmlns="http://www.w3.org/2000/svg">
<g clip-path="url(#clip0_178_2746)">
<path d="M22.8836 26.0107H15.3727C12.7827 26.0107 10.6719 28.1216 10.6719 30.7115V39.2326C10.6719 39.7506 11.0863 40.1779 11.6172 40.1779C12.1482 40.1779 12.5626 39.7506 12.5626 39.2326V30.7115C12.5626 29.1576 13.8316 27.8885 15.3856 27.8885H22.8966C24.4505 27.8885 25.7196 29.1576 25.7196 30.7115V45.7334C25.7196 47.2874 24.4505 48.5565 22.8966 48.5565H15.3727C14.8547 48.5565 14.4273 48.9838 14.4273 49.5018C14.4273 50.0198 14.8417 50.4472 15.3727 50.4472H22.8836C25.4736 50.4472 27.5844 48.3363 27.5844 45.7464V30.7245C27.5844 28.1345 25.4736 26.0237 22.8836 26.0237V26.0107Z" fill="#A88157"/>
<path d="M26.6391 51.2888C26.1211 51.2888 25.6937 51.7161 25.6937 52.2341V60.7552C25.6937 62.3091 24.4246 63.5782 22.8707 63.5782H15.3727C13.8187 63.5782 12.5496 62.3091 12.5496 60.7552V45.7333C12.5496 44.1793 13.8187 42.9102 15.3727 42.9102H22.8836C23.4016 42.9102 23.829 42.4829 23.829 41.9649C23.829 41.4469 23.4146 41.0195 22.8836 41.0195H15.3727C12.7827 41.0195 10.6719 43.1304 10.6719 45.7203V60.7422C10.6719 63.3322 12.7827 65.443 15.3727 65.443H22.8836C25.4736 65.443 27.5844 63.3322 27.5844 60.7422V52.2212C27.5844 51.7032 27.17 51.2758 26.6391 51.2758V51.2888Z" fill="#A88157"/>
<path d="M42.6718 82.3556H34.1507C32.5968 82.3556 31.3277 81.0865 31.3277 79.5325V72.0216C31.3277 70.4676 32.5968 69.1985 34.1507 69.1985H49.1726C50.7266 69.1985 51.9957 70.4676 51.9957 72.0216V79.5325C51.9957 80.0505 52.423 80.4779 52.941 80.4779C53.459 80.4779 53.8864 80.0505 53.8864 79.5325V72.0216C53.8864 69.4316 51.7755 67.3208 49.1856 67.3208H34.1637C31.5737 67.3208 29.4629 69.4316 29.4629 72.0216V79.5325C29.4629 82.1225 31.5737 84.2333 34.1637 84.2333H42.6847C43.2027 84.2333 43.6301 83.806 43.6301 83.288C43.6301 82.77 43.2027 82.3427 42.6847 82.3427L42.6718 82.3556Z" fill="#A88157"/>
<path d="M64.1946 67.3337H55.6736C55.1556 67.3337 54.7282 67.7611 54.7282 68.2791C54.7282 68.7971 55.1556 69.2244 55.6736 69.2244H64.1946C65.7486 69.2244 67.0177 70.4935 67.0177 72.0475V79.5584C67.0177 81.1124 65.7486 82.3815 64.1946 82.3815H49.1727C47.6188 82.3815 46.3497 81.1124 46.3497 79.5584V72.0475C46.3497 71.5295 45.9223 71.1022 45.4043 71.1022C44.8863 71.1022 44.459 71.5295 44.459 72.0475V79.5584C44.459 82.1484 46.5698 84.2592 49.1598 84.2592H64.1817C66.7716 84.2592 68.8825 82.1484 68.8825 79.5584V72.0475C68.8825 69.4575 66.7716 67.3467 64.1817 67.3467L64.1946 67.3337Z" fill="#A88157"/>
<path d="M86.7262 51.2888C86.2083 51.2888 85.7809 51.7161 85.7809 52.2341V60.7552C85.7809 62.3091 84.5118 63.5782 82.9578 63.5782H75.4469C73.8929 63.5782 72.6238 62.3091 72.6238 60.7552V45.7333C72.6238 44.1793 73.8929 42.9102 75.4469 42.9102H82.9578C83.4758 42.9102 83.9032 42.4829 83.9032 41.9649C83.9032 41.4469 83.4758 41.0195 82.9578 41.0195H75.4469C72.8569 41.0195 70.7461 43.1304 70.7461 45.7203V60.7422C70.7461 63.3322 72.8569 65.443 75.4469 65.443H82.9578C85.5478 65.443 87.6586 63.3322 87.6586 60.7422V52.2212C87.6586 51.7032 87.2313 51.2758 86.7133 51.2758L86.7262 51.2888Z" fill="#A88157"/>
<path d="M82.9715 26.0107H75.4606C72.8706 26.0107 70.7598 28.1216 70.7598 30.7115V39.2326C70.7598 39.7506 71.1871 40.1779 71.7051 40.1779C72.2231 40.1779 72.6504 39.7506 72.6504 39.2326V30.7115C72.6504 29.1576 73.9195 27.8885 75.4735 27.8885H82.9845C84.5384 27.8885 85.8075 29.1576 85.8075 30.7115V45.7334C85.8075 47.2874 84.5384 48.5565 82.9845 48.5565H75.4735C74.9555 48.5565 74.5282 48.9838 74.5282 49.5018C74.5282 50.0198 74.9555 50.4472 75.4735 50.4472H82.9845C85.5744 50.4472 87.6853 48.3363 87.6853 45.7464V30.7245C87.6853 28.1345 85.5744 26.0237 82.9845 26.0237L82.9715 26.0107Z" fill="#A88157"/>
<path d="M64.1946 7.2334H55.6736C55.1556 7.2334 54.7282 7.66074 54.7282 8.17874C54.7282 8.69674 55.1556 9.12408 55.6736 9.12408H64.1946C65.7486 9.12408 67.0177 10.3932 67.0177 11.9472V19.4581C67.0177 21.0121 65.7486 22.2812 64.1946 22.2812H49.1727C47.6188 22.2812 46.3497 21.0121 46.3497 19.4581V11.9342C46.3497 11.4162 45.9223 10.9889 45.4043 10.9889C44.8863 10.9889 44.459 11.4162 44.459 11.9342V19.4451C44.459 22.0351 46.5698 24.1459 49.1598 24.1459H64.1817C66.7716 24.1459 68.8825 22.0351 68.8825 19.4451V11.9342C68.8825 9.34423 66.7716 7.2334 64.1817 7.2334H64.1946Z" fill="#A88157"/>
<path d="M52.9274 20.3775C53.4454 20.3775 53.8727 19.9502 53.8727 19.4322V11.9342C53.8727 9.34423 51.7619 7.2334 49.1719 7.2334H34.15C31.56 7.2334 29.4492 9.34423 29.4492 11.9342V19.4451C29.4492 22.0351 31.56 24.1459 34.15 24.1459H42.671C43.189 24.1459 43.6164 23.7186 43.6164 23.2006C43.6164 22.6826 43.189 22.2553 42.671 22.2553H34.15C32.596 22.2553 31.327 20.9862 31.327 19.4322V11.9342C31.327 10.3802 32.596 9.11113 34.15 9.11113H49.1719C50.7259 9.11113 51.995 10.3802 51.995 11.9342V19.4451C51.995 19.9631 52.4223 20.3905 52.9403 20.3905L52.9274 20.3775Z" fill="#A88157"/>
<path d="M33.2051 30.7115V60.7552C33.2051 61.2732 33.6195 61.7005 34.1504 61.7005H64.1942C64.7121 61.7005 65.1395 61.2732 65.1395 60.7552V30.7115C65.1395 30.1935 64.7121 29.7661 64.1942 29.7661H34.1504C33.6324 29.7661 33.2051 30.1935 33.2051 30.7115ZM35.0828 31.6568H63.2488V59.8228H35.0828V31.6568Z" fill="#A88157"/>
</g>
<defs>
<clipPath id="clip0_178_2746">
<rect width="77" height="77" fill="white" transform="translate(10.6719 7.2334)"/>
</clipPath>
</defs>
</svg>
