<svg width="78" height="78" viewBox="0 0 78 78" fill="none" xmlns="http://www.w3.org/2000/svg">
<g clip-path="url(#clip0_1112_628)">
<path d="M12.8836 19.0117H5.37268C2.78271 19.0117 0.671875 21.1225 0.671875 23.7125V32.2335C0.671875 32.7515 1.08627 33.1789 1.61722 33.1789C2.14816 33.1789 2.56256 32.7515 2.56256 32.2335V23.7125C2.56256 22.1585 3.83165 20.8895 5.38563 20.8895H12.8966C14.4505 20.8895 15.7196 22.1585 15.7196 23.7125V38.7344C15.7196 40.2884 14.4505 41.5575 12.8966 41.5575H5.37268C4.85469 41.5575 4.42734 41.9848 4.42734 42.5028C4.42734 43.0208 4.84174 43.4481 5.37268 43.4481H12.8836C15.4736 43.4481 17.5844 41.3373 17.5844 38.7473V23.7255C17.5844 21.1355 15.4736 19.0247 12.8836 19.0247V19.0117Z" fill="#A88157"/>
<path d="M16.6391 44.2907C16.1211 44.2907 15.6937 44.7181 15.6937 45.2361V53.7571C15.6937 55.3111 14.4246 56.5802 12.8707 56.5802H5.37268C3.8187 56.5802 2.54961 55.3111 2.54961 53.7571V38.7352C2.54961 37.1813 3.8187 35.9122 5.37268 35.9122H12.8836C13.4016 35.9122 13.829 35.4848 13.829 34.9668C13.829 34.4488 13.4146 34.0215 12.8836 34.0215H5.37268C2.78271 34.0215 0.671875 36.1323 0.671875 38.7223V53.7442C0.671875 56.3341 2.78271 58.445 5.37268 58.445H12.8836C15.4736 58.445 17.5844 56.3341 17.5844 53.7442V45.2231C17.5844 44.7051 17.17 44.2778 16.6391 44.2778V44.2907Z" fill="#A88157"/>
<path d="M32.6718 75.3571H24.1507C22.5968 75.3571 21.3277 74.088 21.3277 72.534V65.0231C21.3277 63.4691 22.5968 62.2 24.1507 62.2H39.1726C40.7266 62.2 41.9957 63.4691 41.9957 65.0231V72.534C41.9957 73.052 42.423 73.4793 42.941 73.4793C43.459 73.4793 43.8864 73.052 43.8864 72.534V65.0231C43.8864 62.4331 41.7755 60.3223 39.1856 60.3223H24.1637C21.5737 60.3223 19.4629 62.4331 19.4629 65.0231V72.534C19.4629 75.124 21.5737 77.2348 24.1637 77.2348H32.6847C33.2027 77.2348 33.6301 76.8075 33.6301 76.2895C33.6301 75.7715 33.2027 75.3441 32.6847 75.3441L32.6718 75.3571Z" fill="#A88157"/>
<path d="M54.1946 60.334H45.6736C45.1556 60.334 44.7282 60.7613 44.7282 61.2793C44.7282 61.7973 45.1556 62.2247 45.6736 62.2247H54.1946C55.7486 62.2247 57.0177 63.4938 57.0177 65.0477V72.5587C57.0177 74.1127 55.7486 75.3817 54.1946 75.3817H39.1727C37.6188 75.3817 36.3497 74.1127 36.3497 72.5587V65.0477C36.3497 64.5297 35.9223 64.1024 35.4043 64.1024C34.8863 64.1024 34.459 64.5297 34.459 65.0477V72.5587C34.459 75.1486 36.5698 77.2595 39.1598 77.2595H54.1817C56.7716 77.2595 58.8825 75.1486 58.8825 72.5587V65.0477C58.8825 62.4578 56.7716 60.3469 54.1817 60.3469L54.1946 60.334Z" fill="#A88157"/>
<path d="M76.7262 44.2907C76.2083 44.2907 75.7809 44.7181 75.7809 45.2361V53.7571C75.7809 55.3111 74.5118 56.5802 72.9578 56.5802H65.4469C63.8929 56.5802 62.6238 55.3111 62.6238 53.7571V38.7352C62.6238 37.1813 63.8929 35.9122 65.4469 35.9122H72.9578C73.4758 35.9122 73.9032 35.4848 73.9032 34.9668C73.9032 34.4488 73.4758 34.0215 72.9578 34.0215H65.4469C62.8569 34.0215 60.7461 36.1323 60.7461 38.7223V53.7442C60.7461 56.3341 62.8569 58.445 65.4469 58.445H72.9578C75.5478 58.445 77.6586 56.3341 77.6586 53.7442V45.2231C77.6586 44.7051 77.2313 44.2778 76.7133 44.2778L76.7262 44.2907Z" fill="#A88157"/>
<path d="M72.9715 19.0117H65.4606C62.8706 19.0117 60.7598 21.1225 60.7598 23.7125V32.2335C60.7598 32.7515 61.1871 33.1789 61.7051 33.1789C62.2231 33.1789 62.6504 32.7515 62.6504 32.2335V23.7125C62.6504 22.1585 63.9195 20.8895 65.4735 20.8895H72.9845C74.5384 20.8895 75.8075 22.1585 75.8075 23.7125V38.7344C75.8075 40.2884 74.5384 41.5575 72.9845 41.5575H65.4735C64.9555 41.5575 64.5282 41.9848 64.5282 42.5028C64.5282 43.0208 64.9555 43.4481 65.4735 43.4481H72.9845C75.5744 43.4481 77.6853 41.3373 77.6853 38.7473V23.7255C77.6853 21.1355 75.5744 19.0247 72.9845 19.0247L72.9715 19.0117Z" fill="#A88157"/>
<path d="M54.1946 0.234375H45.6736C45.1556 0.234375 44.7282 0.661721 44.7282 1.17972C44.7282 1.69771 45.1556 2.12506 45.6736 2.12506H54.1946C55.7486 2.12506 57.0177 3.39415 57.0177 4.94813V12.4591C57.0177 14.013 55.7486 15.2821 54.1946 15.2821H39.1727C37.6188 15.2821 36.3497 14.013 36.3497 12.4591V4.93518C36.3497 4.41719 35.9223 3.98984 35.4043 3.98984C34.8863 3.98984 34.459 4.41719 34.459 4.93518V12.4461C34.459 15.0361 36.5698 17.1469 39.1598 17.1469H54.1817C56.7716 17.1469 58.8825 15.0361 58.8825 12.4461V4.93518C58.8825 2.34521 56.7716 0.234375 54.1817 0.234375H54.1946Z" fill="#A88157"/>
<path d="M42.9273 13.3785C43.4453 13.3785 43.8727 12.9512 43.8727 12.4332V4.93518C43.8727 2.34521 41.7619 0.234375 39.1719 0.234375H24.15C21.56 0.234375 19.4492 2.34521 19.4492 4.93518V12.4461C19.4492 15.0361 21.56 17.1469 24.15 17.1469H32.671C33.189 17.1469 33.6164 16.7196 33.6164 16.2016C33.6164 15.6836 33.189 15.2562 32.671 15.2562H24.15C22.596 15.2562 21.3269 13.9871 21.3269 12.4332V4.93518C21.3269 3.3812 22.596 2.11211 24.15 2.11211H39.1719C40.7259 2.11211 41.9949 3.3812 41.9949 4.93518V12.4461C41.9949 12.9641 42.4223 13.3915 42.9403 13.3915L42.9273 13.3785Z" fill="#A88157"/>
<path d="M23.2051 23.7129V53.7567C23.2051 54.2746 23.6195 54.702 24.1504 54.702H54.1942C54.7121 54.702 55.1395 54.2746 55.1395 53.7567V23.7129C55.1395 23.1949 54.7121 22.7676 54.1942 22.7676H24.1504C23.6324 22.7676 23.2051 23.1949 23.2051 23.7129ZM25.0828 24.6583H53.2488V52.8243H25.0828V24.6583Z" fill="#A88157"/>
</g>
<defs>
<clipPath id="clip0_1112_628">
<rect width="77" height="77" fill="white" transform="translate(0.671875 0.234375)"/>
</clipPath>
</defs>
</svg>
