<svg width="264" height="264" viewBox="0 0 264 264" fill="none" xmlns="http://www.w3.org/2000/svg">
<path d="M122.872 127.418H82.232C81.042 127.418 80.082 126.448 80.082 125.268V41.3277C80.082 40.1477 81.042 39.1777 82.232 39.1777H122.872C124.052 39.1777 125.022 40.1477 125.022 41.3277V125.268C125.022 126.448 124.052 127.418 122.872 127.418ZM84.382 123.118H120.722V43.4777H84.382V123.118Z" fill="#A88157"/>
<path d="M211.262 127.417H122.882C121.702 127.417 120.732 126.447 120.732 125.267V73.357C120.732 72.177 121.702 71.207 122.882 71.207H211.262C212.452 71.207 213.412 72.167 213.412 73.357V125.267C213.412 126.447 212.452 127.417 211.262 127.417ZM125.032 123.117H209.112V75.507H125.032V123.117Z" fill="#A88157"/>
<path d="M122.872 43.4775H82.232C81.462 43.4775 80.742 43.0675 80.372 42.3975C79.982 41.7275 79.9921 40.9075 80.3921 40.2375L100.712 5.9675C101.482 4.6775 103.632 4.6775 104.402 5.9675L124.722 40.2375C125.112 40.9075 125.122 41.7275 124.742 42.3975C124.362 43.0675 123.652 43.4775 122.882 43.4775H122.872ZM85.992 39.1775H119.102L102.552 11.2775L86.002 39.1775H85.992Z" fill="#A88157"/>
<path d="M102.552 72.2969C101.372 72.2969 100.402 71.3269 100.402 70.1469V54.4469C100.402 53.2669 101.372 52.2969 102.552 52.2969C103.732 52.2969 104.702 53.2669 104.702 54.4469V70.1469C104.702 71.3269 103.742 72.2969 102.552 72.2969Z" fill="#A88157"/>
<path d="M102.552 101.467C101.372 101.467 100.402 100.497 100.402 99.3168V83.6168C100.402 82.4368 101.372 81.4668 102.552 81.4668C103.732 81.4668 104.702 82.4368 104.702 83.6168V99.3168C104.702 100.497 103.742 101.467 102.552 101.467Z" fill="#A88157"/>
<path d="M16.4821 181.309C15.6821 181.309 14.9221 180.869 14.5421 180.089C14.0321 179.019 14.4721 177.739 15.5521 177.219C38.3021 166.249 51.4521 153.849 71.3621 135.089L74.6821 131.969C75.5321 131.149 76.8921 131.189 77.7121 132.059C78.5221 132.919 78.4821 134.279 77.6221 135.089L74.3121 138.209C54.1121 157.249 40.7721 169.819 17.4221 181.089C17.1221 181.229 16.8021 181.299 16.4921 181.299L16.4821 181.309Z" fill="#A88157"/>
<path d="M44.102 192.207C43.532 192.207 42.962 191.977 42.542 191.537C41.732 190.677 41.762 189.317 42.622 188.497C62.792 169.397 74.022 153.817 89.542 132.257C90.242 131.297 91.572 131.087 92.552 131.767C93.512 132.467 93.722 133.807 93.042 134.767C77.382 156.517 66.062 172.227 45.592 191.617C45.182 192.007 44.642 192.207 44.122 192.207H44.102Z" fill="#A88157"/>
<path d="M72.052 201.138C71.652 201.138 71.242 201.028 70.882 200.798C69.882 200.148 69.592 198.828 70.242 197.828C85.902 173.568 94.052 156.838 104.472 132.618C104.942 131.518 106.212 131.028 107.292 131.498C108.382 131.968 108.882 133.228 108.412 134.318C97.902 158.758 89.672 175.648 73.842 200.168C73.432 200.808 72.742 201.148 72.042 201.148L72.052 201.138Z" fill="#A88157"/>
<path d="M100.112 208.289C99.842 208.289 99.572 208.239 99.302 208.129C98.202 207.679 97.682 206.419 98.132 205.329C109.382 177.729 114.972 158.809 119.482 133.049C119.682 131.879 120.762 131.049 121.972 131.299C123.142 131.499 123.932 132.619 123.712 133.779C119.142 159.889 113.482 179.029 102.102 206.949C101.762 207.779 100.962 208.289 100.112 208.289Z" fill="#A88157"/>
<path d="M127.942 214.757C127.782 214.757 127.622 214.737 127.462 214.697C126.302 214.437 125.582 213.277 125.852 212.127C134.032 176.487 136.002 158.847 134.602 133.467C134.542 132.287 135.452 131.267 136.632 131.197H136.752C137.882 131.197 138.832 132.087 138.902 133.227C140.312 159.077 138.322 176.987 130.032 213.087C129.802 214.087 128.922 214.757 127.942 214.757Z" fill="#A88157"/>
<path d="M155.182 220.277C155.092 220.277 154.992 220.277 154.902 220.257C153.722 220.107 152.892 219.027 153.042 217.847C157.722 181.947 156.942 161.557 149.812 133.907C149.522 132.757 150.202 131.577 151.352 131.287C152.532 131.027 153.672 131.687 153.972 132.827C161.252 161.087 162.062 181.877 157.302 218.387C157.162 219.467 156.232 220.257 155.172 220.257L155.182 220.277Z" fill="#A88157"/>
<path d="M181.872 222.788H181.742C180.562 222.718 179.652 221.698 179.722 220.518C181.742 186.028 177.912 163.448 165.062 134.228C164.582 133.148 165.062 131.878 166.162 131.398C167.212 130.928 168.512 131.398 168.992 132.498C182.152 162.408 186.082 185.508 184.022 220.758C183.952 221.898 183.002 222.778 181.872 222.778V222.788Z" fill="#A88157"/>
<path d="M208.062 222.808C206.882 222.808 205.912 221.848 205.912 220.658C205.872 188.258 198.942 164.898 180.332 134.468C179.712 133.448 180.032 132.127 181.042 131.517C182.062 130.897 183.382 131.217 184.002 132.227C203.062 163.417 210.172 187.387 210.212 220.667C210.212 221.857 209.252 222.818 208.062 222.818V222.808Z" fill="#A88157"/>
<path d="M233.802 221.418C232.662 221.418 231.712 220.528 231.652 219.378C230.092 189.388 220.322 166.408 195.602 134.608C194.872 133.668 195.042 132.328 195.982 131.588C196.912 130.858 198.272 131.028 198.992 131.968C224.002 164.138 234.362 188.578 235.952 219.158C236.012 220.338 235.092 221.348 233.912 221.418H233.802Z" fill="#A88157"/>
<path d="M259.112 219.958C258.002 219.958 257.062 219.108 256.972 217.998C254.562 190.108 242.502 168.308 210.872 134.698C210.062 133.838 210.102 132.478 210.962 131.668C211.822 130.858 213.182 130.888 213.992 131.758C246.382 166.158 258.752 188.628 261.252 217.618C261.352 218.798 260.482 219.838 259.292 219.948C259.232 219.948 259.162 219.948 259.112 219.948V219.958Z" fill="#A88157"/>
<path d="M197.342 241.738C113.302 241.738 4.43208 192.558 3.26208 192.018C2.18208 191.528 1.70208 190.248 2.19208 189.178C2.69208 188.098 3.98209 187.618 5.03209 188.108C6.29209 188.678 131.052 245.058 215.332 236.598C216.452 236.448 217.562 237.348 217.682 238.528C217.802 239.698 216.942 240.758 215.752 240.878C209.792 241.468 203.622 241.748 197.322 241.748L197.342 241.738Z" fill="#A88157"/>
<path d="M156.122 258.678C115.342 258.678 7.87204 207.378 3.23204 205.158C2.16204 204.648 1.71203 203.368 2.22203 202.288C2.73203 201.228 4.02204 200.788 5.09204 201.278C6.21204 201.818 116.312 254.378 156.072 254.378C156.752 254.378 157.412 254.358 158.042 254.328H158.152C159.292 254.328 160.242 255.228 160.302 256.368C160.362 257.558 159.442 258.568 158.262 258.618C157.572 258.648 156.862 258.668 156.122 258.668V258.678Z" fill="#A88157"/>
<path d="M180.722 126.878H153.322C152.142 126.878 151.172 125.908 151.172 124.728V105.168C151.172 96.4284 158.282 89.3184 167.022 89.3184C175.762 89.3184 182.872 96.4284 182.872 105.168V124.728C182.872 125.908 181.902 126.878 180.722 126.878ZM155.472 122.578H178.572V105.168C178.572 98.7984 173.392 93.6184 167.022 93.6184C160.652 93.6184 155.472 98.7984 155.472 105.168V122.578Z" fill="#A88157"/>
</svg>
