<svg width="65" height="63" viewBox="0 0 65 63" fill="none" xmlns="http://www.w3.org/2000/svg">
<g clip-path="url(#clip0_2773_15671)">
<path d="M11.7418 19.456C5.71963 19.456 0.828125 14.579 0.828125 8.60183C0.828125 8.28403 1.08622 8.02734 1.40577 8.02734C1.72531 8.02734 1.98341 8.28403 1.98341 8.60183C1.98341 13.9556 6.37101 18.3193 11.7541 18.3193C17.1372 18.3193 21.5248 13.9556 21.5248 8.60183C21.5248 8.28403 21.7829 8.02734 22.1025 8.02734C22.422 8.02734 22.6801 8.28403 22.6801 8.60183C22.6801 14.5912 17.7763 19.4682 11.7664 19.4682L11.7418 19.456Z" fill="#A88157" stroke="#A88157" stroke-width="0.14742" stroke-miterlimit="10"/>
<path d="M11.7371 15.3867C7.53387 15.3867 4.11719 11.9887 4.11719 7.80834C4.11719 3.62801 7.54616 0.242188 11.7371 0.242188C15.9281 0.242188 19.3448 3.64023 19.3448 7.82056C19.3448 12.0009 15.9281 15.3989 11.7371 15.3989V15.3867ZM11.7371 1.37894C8.17296 1.37894 5.27247 4.26361 5.27247 7.80834C5.27247 11.3531 8.17296 14.2377 11.7371 14.2377C15.3013 14.2377 18.2018 11.3531 18.2018 7.80834C18.2018 4.26361 15.3013 1.37894 11.7371 1.37894Z" fill="#A88157" stroke="#A88157" stroke-width="0.14742" stroke-miterlimit="10"/>
<path d="M32.4371 19.4565C26.4149 19.4565 21.5234 14.5795 21.5234 8.59011C21.5234 8.27231 21.7815 8.01562 22.1011 8.01562C22.4206 8.01562 22.6787 8.27231 22.6787 8.59011C22.6787 13.9439 27.0663 18.3075 32.4494 18.3075C37.8326 18.3075 42.2202 13.9439 42.2202 8.59011C42.2202 8.27231 42.4783 8.01562 42.7978 8.01562C43.1173 8.01562 43.3754 8.27231 43.3754 8.59011C43.3754 14.5795 38.4716 19.4565 32.4494 19.4565H32.4371Z" fill="#A88157" stroke="#A88157" stroke-width="0.14742" stroke-miterlimit="10"/>
<path d="M32.4402 15.3867C28.237 15.3867 24.8203 11.9887 24.8203 7.80834C24.8203 3.62801 28.237 0.242188 32.4402 0.242188C36.6435 0.242188 40.0479 3.64023 40.0479 7.82056C40.0479 12.0009 36.6312 15.3989 32.4402 15.3989V15.3867ZM32.4402 1.37894C28.8761 1.37894 25.9756 4.26361 25.9756 7.80834C25.9756 11.3531 28.8761 14.2377 32.4402 14.2377C36.0044 14.2377 38.9049 11.3531 38.9049 7.80834C38.9049 4.26361 36.0044 1.37894 32.4402 1.37894Z" fill="#A88157" stroke="#A88157" stroke-width="0.14742" stroke-miterlimit="10"/>
<path d="M53.1246 19.4565C47.1024 19.4565 42.2109 14.5795 42.2109 8.59011C42.2109 8.27231 42.469 8.01562 42.7886 8.01562C43.1081 8.01562 43.3662 8.27231 43.3662 8.59011C43.3662 13.9439 47.7538 18.3075 53.1369 18.3075C58.5201 18.3075 62.9077 13.9439 62.9077 8.59011C62.9077 8.27231 63.1658 8.01562 63.4853 8.01562C63.8048 8.01562 64.0629 8.27231 64.0629 8.59011C64.0629 14.5795 59.1591 19.4565 53.1369 19.4565H53.1246Z" fill="#A88157" stroke="#A88157" stroke-width="0.14742" stroke-miterlimit="10"/>
<path d="M53.1356 15.3867C48.9323 15.3867 45.5156 11.9887 45.5156 7.80834C45.5156 3.62801 48.9323 0.242188 53.1356 0.242188C57.3388 0.242188 60.7432 3.64023 60.7432 7.82056C60.7432 12.0009 57.3265 15.3989 53.1356 15.3989V15.3867ZM53.1356 1.37894C49.5714 1.37894 46.6709 4.26361 46.6709 7.80834C46.6709 11.3531 49.5714 14.2377 53.1356 14.2377C56.6997 14.2377 59.6002 11.3531 59.6002 7.80834C59.6002 4.26361 56.6997 1.37894 53.1356 1.37894Z" fill="#A88157" stroke="#A88157" stroke-width="0.14742" stroke-miterlimit="10"/>
<path d="M11.7418 41.042C5.71963 41.042 0.828125 36.1771 0.828125 30.1878C0.828125 29.87 1.08622 29.6133 1.40577 29.6133C1.72531 29.6133 1.98341 29.87 1.98341 30.1878C1.98341 35.5415 6.37101 39.9052 11.7541 39.9052C17.1372 39.9052 21.5248 35.5415 21.5248 30.1878C21.5248 29.87 21.7829 29.6133 22.1025 29.6133C22.422 29.6133 22.6801 29.87 22.6801 30.1878C22.6801 36.1771 17.7763 41.0542 11.7664 41.0542L11.7418 41.042Z" fill="#A88157" stroke="#A88157" stroke-width="0.14742" stroke-miterlimit="10"/>
<path d="M11.7371 36.9712C7.53387 36.9712 4.11719 33.5732 4.11719 29.3928C4.11719 25.2125 7.53387 21.8145 11.7371 21.8145C15.9404 21.8145 19.3448 25.2125 19.3448 29.3928C19.3448 33.5732 15.9281 36.9712 11.7371 36.9712ZM11.7371 22.9634C8.17296 22.9634 5.27247 25.8481 5.27247 29.3928C5.27247 32.9375 8.17296 35.8222 11.7371 35.8222C15.3013 35.8222 18.2018 32.9375 18.2018 29.3928C18.2018 25.8481 15.3013 22.9634 11.7371 22.9634Z" fill="#A88157" stroke="#A88157" stroke-width="0.14742" stroke-miterlimit="10"/>
<path d="M32.4371 41.0425C26.4149 41.0425 21.5234 36.1654 21.5234 30.1761C21.5234 29.8582 21.7815 29.6016 22.1011 29.6016C22.4206 29.6016 22.6787 29.8582 22.6787 30.1761C22.6787 35.5298 27.0663 39.8935 32.4494 39.8935C37.8326 39.8935 42.2202 35.5298 42.2202 30.1761C42.2202 29.8582 42.4783 29.6016 42.7978 29.6016C43.1173 29.6016 43.3754 29.8582 43.3754 30.1761C43.3754 36.1654 38.4716 41.0425 32.4494 41.0425H32.4371Z" fill="#A88157" stroke="#A88157" stroke-width="0.14742" stroke-miterlimit="10"/>
<path d="M32.4402 36.9712C28.237 36.9712 24.8203 33.5732 24.8203 29.3928C24.8203 25.2125 28.237 21.8145 32.4402 21.8145C36.6435 21.8145 40.0479 25.2125 40.0479 29.3928C40.0479 33.5732 36.6312 36.9712 32.4402 36.9712ZM32.4402 22.9634C28.8761 22.9634 25.9756 25.8481 25.9756 29.3928C25.9756 32.9375 28.8761 35.8222 32.4402 35.8222C36.0044 35.8222 38.9049 32.9375 38.9049 29.3928C38.9049 25.8481 36.0044 22.9634 32.4402 22.9634Z" fill="#A88157" stroke="#A88157" stroke-width="0.14742" stroke-miterlimit="10"/>
<path d="M53.1246 41.0425C47.1024 41.0425 42.2109 36.1654 42.2109 30.1761C42.2109 29.8582 42.469 29.6016 42.7886 29.6016C43.1081 29.6016 43.3662 29.8582 43.3662 30.1761C43.3662 35.5298 47.7538 39.8935 53.1369 39.8935C58.5201 39.8935 62.9077 35.5298 62.9077 30.1761C62.9077 29.8582 63.1658 29.6016 63.4853 29.6016C63.8048 29.6016 64.0629 29.8582 64.0629 30.1761C64.0629 36.1654 59.1591 41.0425 53.1369 41.0425H53.1246Z" fill="#A88157" stroke="#A88157" stroke-width="0.14742" stroke-miterlimit="10"/>
<path d="M53.1356 36.9712C48.9323 36.9712 45.5156 33.5732 45.5156 29.3928C45.5156 25.2125 48.9323 21.8145 53.1356 21.8145C57.3388 21.8145 60.7432 25.2125 60.7432 29.3928C60.7432 33.5732 57.3265 36.9712 53.1356 36.9712ZM53.1356 22.9634C49.5714 22.9634 46.6709 25.8481 46.6709 29.3928C46.6709 32.9375 49.5714 35.8222 53.1356 35.8222C56.6997 35.8222 59.6002 32.9375 59.6002 29.3928C59.6002 25.8481 56.6997 22.9634 53.1356 22.9634Z" fill="#A88157" stroke="#A88157" stroke-width="0.14742" stroke-miterlimit="10"/>
<path d="M11.7418 62.6279C5.71963 62.6279 0.828125 57.7631 0.828125 51.7737C0.828125 51.4559 1.08622 51.1992 1.40577 51.1992C1.72531 51.1992 1.98341 51.4559 1.98341 51.7737C1.98341 57.1275 6.37101 61.4911 11.7541 61.4911C17.1372 61.4911 21.5248 57.1275 21.5248 51.7737C21.5248 51.4559 21.7829 51.1992 22.1025 51.1992C22.422 51.1992 22.6801 51.4559 22.6801 51.7737C22.6801 57.7631 17.7763 62.6279 11.7664 62.6279H11.7418Z" fill="#A88157" stroke="#A88157" stroke-width="0.14742" stroke-miterlimit="10"/>
<path d="M11.7371 58.5586C7.53387 58.5586 4.11719 55.1605 4.11719 50.9802C4.11719 46.7999 7.53387 43.4141 11.7371 43.4141C15.9404 43.4141 19.3448 46.8121 19.3448 50.9802C19.3448 55.1483 15.9281 58.5586 11.7371 58.5586ZM11.7371 44.563C8.17296 44.563 5.27247 47.4477 5.27247 50.9924C5.27247 54.5372 8.17296 57.4218 11.7371 57.4218C15.3013 57.4218 18.2018 54.5372 18.2018 50.9924C18.2018 47.4477 15.3013 44.563 11.7371 44.563Z" fill="#A88157" stroke="#A88157" stroke-width="0.14742" stroke-miterlimit="10"/>
<path d="M32.4371 62.6279C26.4149 62.6279 21.5234 57.7631 21.5234 51.7737C21.5234 51.4559 21.7815 51.1992 22.1011 51.1992C22.4206 51.1992 22.6787 51.4559 22.6787 51.7737C22.6787 57.1275 27.0663 61.4911 32.4494 61.4911C37.8326 61.4911 42.2202 57.1275 42.2202 51.7737C42.2202 51.4559 42.4783 51.1992 42.7978 51.1992C43.1173 51.1992 43.3754 51.4559 43.3754 51.7737C43.3754 57.7631 38.4716 62.6279 32.4494 62.6279H32.4371Z" fill="#A88157" stroke="#A88157" stroke-width="0.14742" stroke-miterlimit="10"/>
<path d="M32.4402 58.5586C28.237 58.5586 24.8203 55.1605 24.8203 50.9802C24.8203 46.7999 28.237 43.4141 32.4402 43.4141C36.6435 43.4141 40.0479 46.8121 40.0479 50.9802C40.0479 55.1483 36.6312 58.5586 32.4402 58.5586ZM32.4402 44.563C28.8761 44.563 25.9756 47.4477 25.9756 50.9924C25.9756 54.5372 28.8761 57.4218 32.4402 57.4218C36.0044 57.4218 38.9049 54.5372 38.9049 50.9924C38.9049 47.4477 36.0044 44.563 32.4402 44.563Z" fill="#A88157" stroke="#A88157" stroke-width="0.14742" stroke-miterlimit="10"/>
<path d="M53.1246 62.6279C47.1024 62.6279 42.2109 57.7631 42.2109 51.7737C42.2109 51.4559 42.469 51.1992 42.7886 51.1992C43.1081 51.1992 43.3662 51.4559 43.3662 51.7737C43.3662 57.1275 47.7538 61.4911 53.1369 61.4911C58.5201 61.4911 62.9077 57.1275 62.9077 51.7737C62.9077 51.4559 63.1658 51.1992 63.4853 51.1992C63.8048 51.1992 64.0629 51.4559 64.0629 51.7737C64.0629 57.7631 59.1591 62.6279 53.1369 62.6279H53.1246Z" fill="#A88157" stroke="#A88157" stroke-width="0.14742" stroke-miterlimit="10"/>
<path d="M53.1356 58.5586C48.9323 58.5586 45.5156 55.1605 45.5156 50.9802C45.5156 46.7999 48.9323 43.4141 53.1356 43.4141C57.3388 43.4141 60.7432 46.8121 60.7432 50.9802C60.7432 55.1483 57.3265 58.5586 53.1356 58.5586ZM53.1356 44.563C49.5714 44.563 46.6709 47.4477 46.6709 50.9924C46.6709 54.5372 49.5714 57.4218 53.1356 57.4218C56.6997 57.4218 59.6002 54.5372 59.6002 50.9924C59.6002 47.4477 56.6997 44.563 53.1356 44.563Z" fill="#A88157" stroke="#A88157" stroke-width="0.14742" stroke-miterlimit="10"/>
</g>
<defs>
<clipPath id="clip0_2773_15671">
<rect width="63.4667" height="62.6316" fill="white" transform="translate(0.703125 0.119141)"/>
</clipPath>
</defs>
</svg>
