<svg width="24" height="24" viewBox="0 0 24 24" fill="none" xmlns="http://www.w3.org/2000/svg">
<path fill-rule="evenodd" clip-rule="evenodd" d="M2.62397 7.09872C2.7973 7.02933 2.97356 7.00894 3.09219 7.01201L3.09499 7.01209C3.67711 7.03335 3.93539 7.41708 3.98497 7.65549L3.98988 7.6791L3.99008 7.70318C3.99114 7.83404 3.99277 8.12801 3.98994 8.21088C3.98678 8.30372 3.9554 8.38235 3.9185 8.44221V10.433L3.89515 10.4535C3.89675 10.6765 3.94772 11.0035 3.98097 11.1712C4.07835 11.5599 4.31887 12.4445 4.51972 12.9544C4.63403 13.2446 4.72406 13.6687 4.79048 14.0653C4.85776 14.4671 4.90404 14.8614 4.92622 15.1035L4.92724 15.1146V15.8923L4.96039 19.6394L4.937 19.6779V19.7937L4.93542 19.8075C4.90618 20.0626 4.74959 20.2345 4.6701 20.3021C4.55175 20.4028 4.21918 20.5882 3.26689 20.6092C2.33013 20.6298 1.80873 20.5395 1.50568 20.4017C1.19016 20.2583 1.11141 19.965 1.11331 19.8176L1.17839 14.6508L1.18076 14.6347C1.31169 13.745 1.37687 13.5519 1.58388 12.9386C1.66132 12.7091 1.75861 12.4209 1.88661 12.0153C2.10897 11.2588 2.18318 10.8461 2.20398 10.6262C2.21431 10.517 2.2109 10.4609 2.20805 10.437C2.20674 10.4261 2.20545 10.421 2.20507 10.4196C2.20448 10.4173 2.20442 10.4171 2.20431 10.4167C2.20416 10.4162 2.20389 10.4153 2.20226 10.4093C2.2015 10.4064 2.19952 10.399 2.19772 10.39C2.19612 10.3821 2.19255 10.3631 2.19255 10.3389V10.3376C2.19435 10.0066 2.19561 9.50907 2.19355 9.09197C2.19251 8.88321 2.19066 8.69581 2.18766 8.55984C2.18629 8.49774 2.18472 8.44818 2.18299 8.41287C2.17652 8.4014 2.17166 8.39165 2.16828 8.38472C2.15363 8.35468 2.14251 8.32517 2.13573 8.30386L2.12421 8.26767V7.57636L2.14756 7.52673C2.25482 7.29876 2.4486 7.16893 2.62397 7.09872ZM2.63859 7.69472V8.17522C2.66295 8.20727 2.67305 8.23603 2.67515 8.24201C2.67526 8.24233 2.67535 8.24258 2.67542 8.24276C2.68115 8.25861 2.68422 8.27202 2.68569 8.2789C2.6888 8.29349 2.69049 8.30694 2.69144 8.31535C2.69351 8.33358 2.69497 8.35492 2.69612 8.37618C2.6985 8.4199 2.70038 8.47935 2.70192 8.54909C2.70502 8.68933 2.70689 8.88008 2.70793 9.08956C2.70994 9.49656 2.70881 9.97889 2.70709 10.3104C2.71134 10.3286 2.71564 10.3512 2.71899 10.3791C2.72704 10.4465 2.7288 10.5389 2.7162 10.6721C2.69115 10.9369 2.60722 11.3842 2.38047 12.1554L2.37978 12.1577L2.37906 12.16C2.24444 12.5866 2.14472 12.882 2.06714 13.1118C1.86831 13.7008 1.81495 13.8589 1.69232 14.6896L1.62766 19.8237C1.62766 19.8236 1.62767 19.8239 1.62772 19.8243C1.6281 19.8276 1.63077 19.8505 1.64545 19.8776C1.65921 19.903 1.68172 19.9292 1.72339 19.9482C1.91495 20.0353 2.33722 20.1289 3.25524 20.1087C4.10272 20.09 4.32021 19.9339 4.3318 19.925C4.34046 19.9176 4.36267 19.8957 4.38345 19.8628C4.402 19.8335 4.41656 19.7999 4.42262 19.7633V19.5409L4.44479 19.5044L4.41286 15.8945L4.41285 15.8923V15.1369C4.39125 14.9044 4.34681 14.5282 4.28279 14.1458C4.21687 13.7522 4.13336 13.3721 4.03941 13.1336C3.82473 12.5885 3.57636 11.6703 3.47974 11.2838L3.47833 11.2782L3.4772 11.2725C3.43954 11.0845 3.36144 10.6108 3.38541 10.319L3.39355 10.2198L3.40411 10.2105V8.24964L3.47611 8.18502C3.47796 8.10865 3.47695 7.87685 3.47595 7.73837C3.45358 7.67681 3.35893 7.52325 3.07723 7.51242C3.02087 7.51116 2.91792 7.52235 2.81967 7.56169C2.74036 7.59344 2.67852 7.63722 2.63859 7.69472Z" fill="#656565"/>
<path d="M1.11331 19.8176C1.11141 19.965 1.19016 20.2583 1.50568 20.4017C1.80873 20.5395 2.33013 20.6298 3.26689 20.6092C4.21918 20.5882 4.55175 20.4028 4.6701 20.3021C4.74959 20.2345 4.90618 20.0626 4.93542 19.8075L4.937 19.7937V19.6779L4.96039 19.6394L4.92724 15.8923V15.1146L4.92622 15.1035C4.90404 14.8614 4.85776 14.4671 4.79048 14.0653C4.72406 13.6687 4.63403 13.2446 4.51972 12.9544C4.31887 12.4445 4.07835 11.5599 3.98097 11.1712C3.94772 11.0035 3.89675 10.6765 3.89515 10.4535L3.9185 10.433V8.44221C3.9554 8.38235 3.98678 8.30372 3.98994 8.21088C3.99277 8.12801 3.99114 7.83404 3.99008 7.70318L3.98988 7.6791L3.98497 7.65549C3.93539 7.41708 3.67712 7.03335 3.09499 7.01209L3.09219 7.01201C2.97356 7.00894 2.7973 7.02933 2.62397 7.09872C2.4486 7.16893 2.25482 7.29876 2.14756 7.52673L2.12421 7.57636V8.26767L2.13573 8.30386C2.14251 8.32517 2.15363 8.35468 2.16828 8.38472C2.17166 8.39165 2.17652 8.4014 2.18299 8.41287C2.18472 8.44818 2.18629 8.49774 2.18766 8.55984C2.19066 8.69581 2.19251 8.88321 2.19355 9.09197C2.19561 9.50907 2.19435 10.0066 2.19255 10.3376V10.3389C2.19255 10.3631 2.19612 10.3821 2.19772 10.39C2.19952 10.399 2.2015 10.4064 2.20226 10.4093C2.20389 10.4153 2.20416 10.4162 2.20431 10.4167C2.20442 10.4171 2.20448 10.4173 2.20507 10.4196C2.20545 10.421 2.20674 10.4261 2.20805 10.437C2.2109 10.4609 2.21431 10.517 2.20398 10.6262C2.18318 10.8461 2.10897 11.2588 1.88661 12.0153C1.75861 12.4209 1.66132 12.7091 1.58388 12.9386C1.37687 13.5519 1.31169 13.745 1.18076 14.6347L1.17839 14.6508L1.11331 19.8176ZM1.11331 19.8176C1.11331 19.8176 1.11332 19.8175 1.11331 19.8176ZM2.63859 8.17522V7.69472C2.67852 7.63722 2.74036 7.59344 2.81967 7.56169C2.91792 7.52235 3.02087 7.51116 3.07723 7.51242C3.35893 7.52325 3.45358 7.67681 3.47595 7.73837C3.47695 7.87685 3.47796 8.10865 3.47611 8.18502L3.40411 8.24964V10.2105L3.39355 10.2198L3.38541 10.319C3.36144 10.6108 3.43954 11.0845 3.4772 11.2725L3.47833 11.2782L3.47974 11.2838C3.57636 11.6703 3.82473 12.5885 4.03941 13.1336C4.13336 13.3721 4.21687 13.7522 4.28279 14.1458C4.34681 14.5282 4.39125 14.9044 4.41285 15.1369V15.8923L4.41286 15.8945L4.44479 19.5044L4.42262 19.5409V19.7633C4.41656 19.7999 4.402 19.8335 4.38345 19.8628C4.36267 19.8957 4.34046 19.9176 4.3318 19.925C4.32022 19.9339 4.10272 20.09 3.25524 20.1087C2.33722 20.1289 1.91495 20.0353 1.72339 19.9482C1.68172 19.9292 1.65921 19.903 1.64545 19.8776C1.63077 19.8505 1.6281 19.8276 1.62772 19.8243C1.62767 19.8239 1.62766 19.8236 1.62766 19.8237L1.69232 14.6896C1.81495 13.8589 1.86831 13.7008 2.06714 13.1118C2.14472 12.882 2.24444 12.5866 2.37906 12.16L2.37978 12.1577L2.38047 12.1554C2.60722 11.3842 2.69115 10.9369 2.7162 10.6721C2.7288 10.5389 2.72704 10.4465 2.71899 10.3791C2.71564 10.3512 2.71134 10.3286 2.70709 10.3104C2.70881 9.97889 2.70994 9.49656 2.70793 9.08956C2.70689 8.88008 2.70502 8.68933 2.70192 8.54909C2.70038 8.47935 2.6985 8.4199 2.69612 8.37618C2.69497 8.35492 2.69351 8.33358 2.69144 8.31535C2.69049 8.30694 2.6888 8.29349 2.68569 8.2789C2.68422 8.27202 2.68115 8.25861 2.67542 8.24276C2.67535 8.24258 2.67526 8.24233 2.67515 8.24201C2.67305 8.23603 2.66295 8.20727 2.63859 8.17522Z" stroke="#656565" stroke-width="0.2"/>
<path fill-rule="evenodd" clip-rule="evenodd" d="M9.81097 5.21653C10.0089 5.1373 10.2102 5.11402 10.3456 5.11752L10.3488 5.11761C11.0135 5.14189 11.3085 5.58006 11.3651 5.85231L11.3707 5.87926L11.3709 5.90675C11.3721 6.05619 11.374 6.39186 11.3708 6.4865C11.3671 6.59251 11.3313 6.6823 11.2892 6.75064V9.02388L11.2625 9.04732C11.2643 9.302 11.3225 9.67538 11.3605 9.86679C11.4717 10.3107 11.7464 11.3207 11.9757 11.9031C12.1062 12.2345 12.209 12.7187 12.2849 13.1716C12.3617 13.6304 12.4146 14.0806 12.4399 14.3571L12.441 14.3697V15.2578L12.4789 19.5366L12.4522 19.5805V19.7127L12.4504 19.7285C12.417 20.0198 12.2382 20.2161 12.1474 20.2933C12.0123 20.4082 11.6325 20.62 10.5451 20.6439C9.47544 20.6675 8.88006 20.5644 8.53402 20.4071C8.17372 20.2433 8.0838 19.9083 8.08598 19.74L8.16028 13.8402L8.16299 13.8218C8.3125 12.8058 8.38693 12.5853 8.62331 11.885C8.71173 11.623 8.82283 11.2938 8.96899 10.8307C9.2229 9.96688 9.30764 9.49564 9.33139 9.24455C9.34318 9.11987 9.33929 9.05571 9.33604 9.02846C9.33454 9.01599 9.33307 9.01025 9.33263 9.00854C9.33196 9.00594 9.3319 9.00571 9.33176 9.00527C9.33159 9.00471 9.33129 9.00374 9.32943 8.99679C9.32856 8.99354 9.3263 8.98508 9.32424 8.97482C9.32242 8.96576 9.31834 8.94406 9.31834 8.91648V8.91497C9.32039 8.53704 9.32183 7.96888 9.31948 7.4926C9.3183 7.25421 9.31618 7.04023 9.31275 6.88496C9.31119 6.81405 9.30939 6.75747 9.30742 6.71714C9.30003 6.70405 9.29448 6.69291 9.29062 6.685C9.2739 6.65069 9.2612 6.61699 9.25346 6.59267L9.2403 6.55134V5.76194L9.26696 5.70528C9.38944 5.44495 9.61072 5.29671 9.81097 5.21653ZM9.82767 5.89709V6.44578C9.85548 6.48237 9.86702 6.5152 9.86942 6.52204C9.86954 6.5224 9.86964 6.52269 9.86972 6.5229C9.87627 6.541 9.87977 6.55631 9.88145 6.56417C9.885 6.58083 9.88693 6.59618 9.88802 6.60579C9.89037 6.62661 9.89204 6.65096 9.89336 6.67524C9.89608 6.72517 9.89823 6.79306 9.89998 6.87269C9.90352 7.03283 9.90566 7.25064 9.90684 7.48985C9.90914 7.95459 9.90785 8.50536 9.90589 8.88388C9.91074 8.9047 9.91565 8.93044 9.91947 8.96241C9.92866 9.03932 9.93068 9.14477 9.91628 9.29695C9.88769 9.59931 9.79185 10.1101 9.53292 10.9906L9.53214 10.9933L9.53131 10.9959C9.37759 11.483 9.26372 11.8204 9.17513 12.0828C8.94809 12.7554 8.88716 12.9359 8.74714 13.8844L8.6733 19.747C8.6733 19.7469 8.67332 19.7473 8.67336 19.7477C8.67381 19.7515 8.67685 19.7776 8.69361 19.8086C8.70932 19.8376 8.73502 19.8675 8.78261 19.8891C9.00135 19.9886 9.48353 20.0956 10.5318 20.0724C11.4995 20.0511 11.7479 19.8729 11.7611 19.8627C11.771 19.8542 11.7964 19.8293 11.8201 19.7917C11.8413 19.7582 11.8579 19.7199 11.8648 19.6781V19.4241L11.8901 19.3824L11.8537 15.2603L11.8537 15.2578V14.3952C11.829 14.1298 11.7783 13.7001 11.7052 13.2635C11.6299 12.814 11.5345 12.3801 11.4272 12.1077C11.1821 11.4852 10.8985 10.4368 10.7882 9.99543L10.7866 9.98901L10.7853 9.98253C10.7423 9.76779 10.6531 9.22697 10.6804 8.8937L10.6897 8.78048L10.7018 8.76988V6.53075L10.784 6.45697C10.7861 6.36976 10.785 6.10506 10.7838 5.94694C10.7583 5.87664 10.6502 5.70129 10.3285 5.68893C10.2642 5.6875 10.1466 5.70027 10.0344 5.74519C9.94387 5.78145 9.87326 5.83144 9.82767 5.89709Z" fill="#656565"/>
<path d="M8.08598 19.74C8.0838 19.9083 8.17372 20.2433 8.53402 20.4071C8.88006 20.5644 9.47544 20.6675 10.5451 20.6439C11.6325 20.62 12.0123 20.4082 12.1474 20.2933C12.2382 20.2161 12.417 20.0198 12.4504 19.7285L12.4522 19.7127V19.5805L12.4789 19.5366L12.441 15.2578V14.3697L12.4399 14.3571C12.4146 14.0806 12.3617 13.6304 12.2849 13.1716C12.209 12.7187 12.1062 12.2345 11.9757 11.9031C11.7464 11.3207 11.4717 10.3107 11.3605 9.86679C11.3225 9.67538 11.2643 9.302 11.2625 9.04732L11.2892 9.02388V6.75064C11.3313 6.6823 11.3671 6.59251 11.3708 6.4865C11.374 6.39186 11.3721 6.05619 11.3709 5.90675L11.3707 5.87926L11.3651 5.85231C11.3085 5.58006 11.0135 5.14189 10.3488 5.11761L10.3456 5.11752C10.2102 5.11402 10.0089 5.1373 9.81097 5.21653C9.61072 5.29671 9.38944 5.44495 9.26696 5.70528L9.2403 5.76194V6.55134L9.25346 6.59267C9.2612 6.61699 9.2739 6.65069 9.29062 6.685C9.29448 6.69291 9.30003 6.70405 9.30742 6.71714C9.30939 6.75747 9.31119 6.81405 9.31275 6.88496C9.31618 7.04023 9.3183 7.25421 9.31948 7.4926C9.32183 7.96888 9.32039 8.53704 9.31834 8.91497V8.91648C9.31834 8.94406 9.32242 8.96576 9.32424 8.97482C9.3263 8.98508 9.32856 8.99354 9.32943 8.99679C9.33129 9.00374 9.33159 9.00471 9.33176 9.00527C9.3319 9.00571 9.33196 9.00594 9.33263 9.00854C9.33307 9.01025 9.33454 9.01599 9.33604 9.02846C9.33929 9.05571 9.34318 9.11987 9.33139 9.24455C9.30764 9.49564 9.2229 9.96688 8.96899 10.8307C8.82283 11.2938 8.71173 11.623 8.62331 11.885C8.38693 12.5853 8.3125 12.8058 8.16299 13.8218L8.16028 13.8402L8.08598 19.74ZM8.08598 19.74C8.08598 19.74 8.08598 19.74 8.08598 19.74ZM11.7611 19.8627C11.7479 19.8729 11.4995 20.0511 10.5318 20.0724C9.48353 20.0956 9.00135 19.9886 8.78261 19.8891C8.73502 19.8675 8.70932 19.8376 8.69361 19.8086C8.67685 19.7776 8.67381 19.7515 8.67336 19.7477C8.67332 19.7473 8.6733 19.7469 8.6733 19.747L8.74714 13.8844C8.88716 12.9359 8.94809 12.7554 9.17513 12.0828C9.26372 11.8204 9.37759 11.483 9.53131 10.9959L9.53214 10.9933L9.53292 10.9906C9.79185 10.1101 9.88769 9.59931 9.91628 9.29695C9.93068 9.14477 9.92866 9.03932 9.91947 8.96241C9.91565 8.93044 9.91074 8.9047 9.90589 8.88388C9.90785 8.50536 9.90914 7.95459 9.90684 7.48985C9.90566 7.25064 9.90352 7.03283 9.89998 6.87269C9.89823 6.79306 9.89608 6.72517 9.89336 6.67524C9.89204 6.65096 9.89037 6.62661 9.88802 6.60579C9.88693 6.59618 9.885 6.58083 9.88145 6.56417C9.87977 6.55631 9.87627 6.541 9.86972 6.5229C9.86964 6.52269 9.86954 6.5224 9.86942 6.52204C9.86702 6.5152 9.85548 6.48237 9.82767 6.44578V5.89709C9.87326 5.83144 9.94387 5.78145 10.0344 5.74519C10.1466 5.70027 10.2642 5.6875 10.3285 5.68893C10.6502 5.70129 10.7583 5.87664 10.7838 5.94694C10.785 6.10506 10.7861 6.36976 10.784 6.45697L10.7018 6.53075V8.76988L10.6897 8.78048L10.6804 8.8937C10.6531 9.22697 10.7423 9.76779 10.7853 9.98253L10.7866 9.98901L10.7882 9.99543C10.8985 10.4368 11.1821 11.4852 11.4272 12.1077C11.5345 12.3801 11.6299 12.814 11.7052 13.2635C11.7783 13.7001 11.829 14.1298 11.8537 14.3952V15.2578L11.8537 15.2603L11.8901 19.3824L11.8648 19.4241V19.6781C11.8579 19.7199 11.8413 19.7582 11.8201 19.7917C11.7964 19.8293 11.771 19.8542 11.7611 19.8627ZM11.7611 19.8627C11.7615 19.8624 11.7617 19.8622 11.7617 19.8622" stroke="#656565" stroke-width="0.2"/>
<path fill-rule="evenodd" clip-rule="evenodd" d="M17.5596 2.56014C17.7845 2.47009 18.0136 2.44369 18.1664 2.44764L18.1696 2.44773C18.9231 2.47525 19.2519 2.97013 19.3143 3.27031L19.3199 3.29726L19.3201 3.32476C19.3216 3.50078 19.3237 3.89342 19.32 4.0032C19.3159 4.12396 19.2729 4.22555 19.2242 4.30088V6.96108L19.1929 6.9886C19.1917 7.29448 19.2635 7.75376 19.3091 7.98313C19.4394 8.50372 19.7627 9.69319 20.0334 10.3804C20.1846 10.7643 20.3046 11.3283 20.3936 11.8595C20.4835 12.3968 20.5454 12.9241 20.5751 13.2475L20.5762 13.2601V14.3003L20.6205 19.3092L20.5893 19.3606V19.5266L20.5875 19.5424C20.5502 19.8674 20.3501 20.0874 20.249 20.1734C20.1035 20.2972 19.6721 20.5447 18.4007 20.5727C17.147 20.6004 16.458 20.479 16.0629 20.2994C15.6634 20.1177 15.5641 19.7463 15.5664 19.562L15.6536 12.6402L15.6563 12.6218C15.8312 11.4338 15.9173 11.1787 16.1941 10.3586C16.2979 10.0509 16.4286 9.66378 16.6008 9.11809C16.8993 8.10253 16.9998 7.54591 17.0281 7.24671C17.0421 7.09798 17.0377 7.01908 17.0334 6.98279C17.0313 6.96566 17.0292 6.95683 17.0282 6.95305C17.0274 6.94977 17.0272 6.9493 17.027 6.94839C17.0267 6.94735 17.0262 6.94573 17.0243 6.93881C17.0234 6.93525 17.021 6.92651 17.0189 6.91602C17.0171 6.90672 17.013 6.88483 17.013 6.85708V6.85557C17.0154 6.41188 17.0171 5.74481 17.0143 5.18554C17.0129 4.90566 17.0104 4.65416 17.0064 4.47149C17.0044 4.38111 17.0021 4.31001 16.9995 4.26141C16.9888 4.24326 16.9808 4.22751 16.9755 4.21656C16.957 4.17866 16.943 4.14134 16.9345 4.11477L16.9214 4.07345V3.16522L16.948 3.10855C17.0848 2.81789 17.3323 2.65113 17.5596 2.56014ZM17.5087 3.29831V3.97412C17.5439 4.01554 17.5579 4.05544 17.5607 4.06319C17.5608 4.06356 17.5609 4.06385 17.561 4.06407C17.5676 4.08236 17.5712 4.09793 17.5729 4.10609C17.5766 4.12338 17.5787 4.13961 17.5799 4.15031C17.5825 4.17332 17.5844 4.2008 17.5859 4.22902C17.589 4.28682 17.5916 4.36589 17.5936 4.45922C17.5978 4.64676 17.6003 4.90208 17.6017 5.18279C17.6044 5.73045 17.6028 6.37999 17.6005 6.82436C17.6062 6.84809 17.6122 6.87823 17.6168 6.91673C17.6271 7.0027 17.6296 7.12288 17.613 7.29911C17.5798 7.64959 17.4683 8.24573 17.1647 9.278L17.1639 9.28065L17.1631 9.28328C16.9833 9.853 16.8499 10.2483 16.7459 10.5564C16.4784 11.3488 16.4058 11.5638 16.2405 12.6844L16.1538 19.569C16.1538 19.5686 16.1537 19.572 16.1545 19.5783C16.1553 19.5844 16.1566 19.5924 16.1589 19.6018C16.1636 19.6208 16.1715 19.6428 16.1835 19.665C16.2064 19.7074 16.2443 19.7509 16.3115 19.7814C16.5793 19.9032 17.1551 20.0284 18.3874 20.0012C18.9912 19.9879 19.3625 19.9227 19.5826 19.8602C19.6922 19.8291 19.7629 19.7991 19.8056 19.7774C19.8269 19.7666 19.8412 19.7578 19.85 19.752C19.8587 19.7462 19.8624 19.743 19.8625 19.743C19.8996 19.7114 19.9827 19.6174 20.0019 19.4925V19.2042L20.0318 19.1551L19.9889 14.3028L19.9888 14.3003V13.2856C19.9599 12.9732 19.9001 12.4665 19.8139 11.9515C19.7255 11.4236 19.6129 10.9099 19.4849 10.585C19.1985 9.85767 18.8662 8.62972 18.7367 8.11177L18.7351 8.10536L18.7338 8.09888C18.6833 7.84652 18.5801 7.21789 18.6116 6.83431L18.6209 6.72109L18.6368 6.70708V4.07855L18.7254 3.99909C18.7264 3.99761 18.7277 3.99557 18.729 3.99317C18.7309 3.98975 18.732 3.9869 18.7326 3.98497C18.7332 3.98315 18.733 3.98297 18.7329 3.98423C18.736 3.89498 18.7345 3.55564 18.733 3.36334C18.7016 3.26746 18.5613 3.03472 18.1492 3.01905C18.0676 3.01717 17.9222 3.03306 17.783 3.0888C17.6647 3.13618 17.5689 3.2044 17.5087 3.29831Z" fill="#656565"/>
<path d="M15.5664 19.562C15.5641 19.7463 15.6634 20.1177 16.0629 20.2994C16.458 20.479 17.147 20.6004 18.4007 20.5727C19.6721 20.5447 20.1035 20.2972 20.249 20.1734C20.3501 20.0874 20.5502 19.8674 20.5875 19.5424L20.5893 19.5266V19.3606L20.6205 19.3092L20.5762 14.3003V13.2601L20.5751 13.2475C20.5454 12.9241 20.4835 12.3968 20.3936 11.8595C20.3046 11.3283 20.1846 10.7643 20.0334 10.3804C19.7627 9.69319 19.4394 8.50372 19.3091 7.98313C19.2635 7.75376 19.1917 7.29448 19.1929 6.9886L19.2242 6.96108V4.30088C19.2729 4.22555 19.3159 4.12396 19.32 4.0032C19.3237 3.89342 19.3216 3.50078 19.3201 3.32476L19.3199 3.29726L19.3143 3.27031C19.2519 2.97013 18.9231 2.47525 18.1696 2.44773L18.1664 2.44764C18.0136 2.44369 17.7845 2.47009 17.5596 2.56014C17.3323 2.65113 17.0848 2.81789 16.948 3.10855L16.9214 3.16522V4.07345L16.9345 4.11477C16.943 4.14134 16.957 4.17866 16.9755 4.21656C16.9808 4.22751 16.9888 4.24326 16.9995 4.26141C17.0021 4.31001 17.0044 4.38111 17.0064 4.47149C17.0104 4.65416 17.0129 4.90566 17.0143 5.18554C17.0171 5.74481 17.0154 6.41188 17.013 6.85557V6.85708C17.013 6.88483 17.0171 6.90673 17.0189 6.91602C17.021 6.92651 17.0234 6.93525 17.0243 6.93881C17.0262 6.94573 17.0267 6.94735 17.027 6.94839C17.0272 6.9493 17.0274 6.94977 17.0282 6.95305C17.0292 6.95683 17.0313 6.96566 17.0334 6.98279C17.0377 7.01908 17.0421 7.09798 17.0281 7.24671C16.9998 7.54591 16.8993 8.10253 16.6008 9.11809C16.4286 9.66378 16.2979 10.0509 16.1941 10.3586C15.9173 11.1787 15.8312 11.4338 15.6563 12.6218L15.6536 12.6402L15.5664 19.562ZM15.5664 19.562C15.5664 19.562 15.5664 19.5619 15.5664 19.562ZM17.5087 3.97412V3.29831C17.5689 3.2044 17.6647 3.13618 17.783 3.0888C17.9222 3.03306 18.0676 3.01717 18.1492 3.01905C18.5613 3.03472 18.7016 3.26746 18.733 3.36334C18.7345 3.55564 18.736 3.89498 18.7329 3.98423C18.733 3.98297 18.7332 3.98315 18.7326 3.98497C18.732 3.9869 18.7309 3.98975 18.729 3.99317C18.7277 3.99557 18.7264 3.99761 18.7254 3.99909L18.6368 4.07855V6.70708L18.6209 6.72109L18.6116 6.83431C18.5801 7.21789 18.6833 7.84652 18.7338 8.09888L18.7351 8.10536L18.7367 8.11177C18.8662 8.62972 19.1985 9.85767 19.4849 10.585C19.6129 10.9099 19.7255 11.4236 19.8139 11.9515C19.9001 12.4665 19.9599 12.9732 19.9888 13.2856V14.3003L19.9889 14.3028L20.0318 19.1551L20.0019 19.2042V19.4925C19.9827 19.6174 19.8996 19.7114 19.8625 19.743C19.8624 19.743 19.8587 19.7462 19.85 19.752C19.8412 19.7578 19.8269 19.7666 19.8056 19.7774C19.7629 19.7991 19.6922 19.8291 19.5826 19.8602C19.3625 19.9227 18.9912 19.9879 18.3874 20.0012C17.1551 20.0284 16.5793 19.9032 16.3115 19.7814C16.2443 19.7509 16.2064 19.7074 16.1835 19.665C16.1715 19.6428 16.1636 19.6208 16.1589 19.6018C16.1566 19.5924 16.1553 19.5844 16.1545 19.5783C16.1537 19.572 16.1538 19.5686 16.1538 19.569L16.2405 12.6844C16.4058 11.5638 16.4784 11.3487 16.7459 10.5564C16.8499 10.2483 16.9833 9.853 17.1631 9.28328L17.1639 9.28065L17.1647 9.278C17.4683 8.24573 17.5798 7.64959 17.613 7.29911C17.6296 7.12288 17.6271 7.0027 17.6168 6.91673C17.6122 6.87823 17.6062 6.84809 17.6005 6.82436C17.6028 6.37999 17.6044 5.73045 17.6017 5.18279C17.6003 4.90208 17.5978 4.64676 17.5936 4.45922C17.5916 4.36588 17.589 4.28682 17.5859 4.22902C17.5844 4.2008 17.5825 4.17332 17.5799 4.15031C17.5787 4.13961 17.5766 4.12338 17.5729 4.10609C17.5712 4.09793 17.5676 4.08236 17.561 4.06407C17.5609 4.06385 17.5608 4.06356 17.5607 4.06319C17.5579 4.05544 17.5439 4.01554 17.5087 3.97412Z" stroke="#656565" stroke-width="0.2"/>
</svg>
