<svg width="24" height="24" viewBox="0 0 45 45" fill="none" xmlns="http://www.w3.org/2000/svg">
<g clip-path="url(#clip0_11157_3176)">
<path d="M27.6541 24.8923C27.5504 21.5001 26.6075 18.8146 25.5609 16.6526C25.2251 15.9564 24.9043 15.302 24.6821 14.7262C24.0304 13.0458 24.1094 8.09879 24.1835 5.81638C24.4698 5.72738 24.6772 5.39758 24.6772 5.00497V4.27208C24.6772 3.81141 24.3859 3.43973 24.0304 3.43973H23.9959L24.0304 3.4502C24.0502 3.09946 24.0057 3 23.5664 3H21.4287C20.8856 3 20.9449 3.09423 20.9646 3.4502L20.9992 3.43973H20.9646C20.6092 3.43973 20.3179 3.81664 20.3179 4.27208V5.00497C20.3179 5.38711 20.5203 5.71168 20.8116 5.81114C20.8856 8.08832 20.9696 13.0458 20.313 14.7262C20.0908 15.3073 19.7699 15.9616 19.4342 16.6526C18.3925 18.8146 17.4496 21.5001 17.3459 24.8923C17.1484 31.2737 17.3163 40.3667 17.3212 40.44C17.3212 40.4505 17.3311 40.5656 17.336 40.6128C17.4447 41.4032 18.0914 42 18.8418 42H26.1533C26.9234 42 27.5751 41.3875 27.664 40.5761C27.664 40.5395 27.6788 40.4557 27.6788 40.4557C27.6837 40.3667 27.8516 31.2737 27.6541 24.8871V24.8923ZM27.2838 40.4191L27.2739 40.5028C27.2098 41.0577 26.721 41.4975 26.1533 41.4975H18.8418C18.279 41.4975 17.7952 41.0787 17.7211 40.529C17.7211 40.5028 17.7112 40.4348 17.7112 40.4243C17.7063 40.3353 17.5434 31.2685 17.7359 24.9133C17.8347 21.6572 18.748 19.0345 19.7699 16.9248C20.1106 16.2234 20.4364 15.5585 20.6684 14.9565C21.3596 13.1819 21.3003 8.31866 21.2016 5.57557C21.2016 5.43946 21.0732 5.33477 20.9646 5.33477C20.8264 5.33477 20.7129 5.18819 20.7129 5.0102V4.27732C20.7129 4.09933 20.8264 3.95275 20.9646 3.95275H24.0304C24.1687 3.95275 24.2822 4.09933 24.2822 4.27732V5.0102C24.2822 5.18819 24.1687 5.33477 23.9909 5.33477C23.8873 5.33477 23.7984 5.43946 23.7935 5.57557C23.6947 8.31866 23.6355 13.1819 24.3217 14.9565C24.5537 15.5585 24.8796 16.2234 25.2202 16.9301C26.2421 19.0397 27.1555 21.6624 27.2542 24.9185C27.4467 31.2737 27.2838 40.3353 27.2789 40.4243L27.2838 40.4191Z" fill="#656565" stroke="#656565" stroke-width="0.6" stroke-miterlimit="10"/>
</g>
<defs>
<clipPath id="clip0_11157_3176">
<rect width="45" height="45" fill="white"/>
</clipPath>
</defs>
</svg>
