<svg xmlns="http://www.w3.org/2000/svg" version="1.0" width="324.000000pt" height="412.000000pt" viewBox="0 0 324.000000 412.000000" preserveAspectRatio="xMidYMid meet">

<g transform="translate(0.000000,412.000000) scale(0.100000,-0.100000)" fill="#881337" stroke="none">
<path d="M2406 3629 c-125 -30 -273 -148 -335 -269 -19 -36 -35 -66 -37 -68 -5 -7 -50 21 -81 50 -37 35 -37 35 -52 -77 -14 -106 6 -192 56 -237 10 -10 41 -28 68 -40 44 -20 65 -23 183 -23 72 1 132 0 132 -1 0 -2 -43 -12 -95 -25 -172 -39 -296 -14 -400 82 -44 41 -98 117 -244 348 -74 116 -203 261 -232 261 -46 0 -128 -60 -156 -115 -15 -29 -15 -30 12 -50 102 -73 183 -145 233 -205 129 -157 211 -337 235 -517 l11 -83 49 0 50 0 -5 139 -4 138 60 -28 c34 -15 92 -33 131 -39 38 -6 71 -13 73 -15 2 -1 -2 -23 -8 -46 -15 -55 -6 -147 19 -205 29 -65 66 -109 123 -145 l50 -33 19 25 c11 13 29 42 41 64 11 22 21 41 22 42 2 2 21 -6 43 -17 68 -33 128 -43 226 -38 95 5 184 31 228 67 l22 17 -21 47 c-26 59 -100 138 -152 163 -22 10 -40 22 -40 25 0 3 24 13 54 22 158 50 341 248 372 403 l6 31 -86 32 c-156 56 -324 59 -475 8 -39 -13 -71 -21 -71 -18 0 3 10 31 21 61 16 40 23 85 27 168 5 126 9 120 -72 101z" fill="#881337"/>
<path d="M674 3136 c-101 -23 -200 -80 -279 -160 -116 -117 -165 -237 -165 -403 0 -166 48 -282 170 -404 84 -85 170 -133 271 -152 33 -7 59 -14 59 -18 0 -3 -9 -41 -20 -84 -53 -206 4 -411 155 -560 72 -71 179 -129 271 -146 32 -7 60 -13 62 -14 1 -1 -6 -36 -18 -76 -102 -370 169 -729 550 -729 155 0 294 57 403 165 110 109 167 248 167 406 0 136 7 129 -125 129 l-112 0 15 -57 c27 -108 -12 -237 -98 -323 -139 -140 -361 -140 -500 0 -145 144 -138 382 13 515 29 25 73 53 98 63 26 9 48 21 49 25 1 5 -30 49 -69 97 l-71 89 -49 -33 c-126 -85 -310 -69 -428 38 -22 19 -55 64 -73 98 -29 54 -35 75 -38 148 -3 69 0 95 18 142 28 77 104 159 178 194 31 15 58 28 59 29 1 1 -18 54 -43 118 l-46 118 -45 -42 c-72 -66 -122 -84 -233 -84 -115 0 -163 19 -244 95 -77 73 -110 150 -110 255 0 105 33 182 110 255 78 74 128 93 244 94 86 1 100 -2 153 -28 64 -33 134 -102 166 -165 12 -22 37 -101 56 -173 110 -415 267 -784 431 -1016 99 -139 223 -239 352 -284 89 -31 268 -33 352 -4 230 79 386 247 422 454 45 262 -157 555 -413 602 -91 17 -180 -10 -247 -74 -43 -40 -62 -76 -62 -120 0 -71 80 -131 298 -221 127 -53 180 -100 202 -180 25 -88 -15 -212 -87 -276 -94 -82 -211 -97 -324 -42 -195 96 -386 311 -514 578 -91 191 -150 371 -206 635 -37 175 -77 263 -159 352 -136 148 -355 217 -546 174z" fill="#881337"/>
<path d="M1894 2236 c-15 -40 21 -80 54 -60 37 24 21 74 -25 74 -13 0 -26 -6 -29 -14z" fill="#881337"/>
<path d="M1759 2141 c-16 -16 -29 -39 -29 -51 0 -25 51 -80 74 -80 30 0 65 23 77 51 15 37 -2 82 -37 98 -38 17 -53 14 -85 -18z" fill="#881337"/>
<path d="M2251 1767 c-51 -105 -150 -177 -243 -177 -26 0 -48 -4 -48 -9 0 -15 123 -63 175 -68 68 -7 129 11 175 54 85 76 77 183 -17 232 -19 10 -23 7 -42 -32z" fill="#881337"/>
</g>
</svg>